<svg xmlns="http://www.w3.org/2000/svg" width="863" height="849" viewBox="0 0 863 849" version="1.1"><path d="M 424.469 27.220 C 424.179 27.977, 424.067 34.875, 424.220 42.548 L 424.500 56.500 442.500 57.163 C 452.400 57.528, 463.425 58.315, 467 58.911 C 470.575 59.508, 478 60.657, 483.500 61.463 C 499.743 63.846, 517.489 67.735, 522.500 70.009 C 523.600 70.508, 526.525 71.404, 529 72 C 531.475 72.596, 534.400 73.462, 535.500 73.924 C 536.600 74.387, 541.325 75.988, 546 77.484 C 550.675 78.979, 555.850 80.772, 557.500 81.469 C 559.150 82.165, 563.650 83.969, 567.500 85.477 C 571.350 86.986, 576.525 89.265, 579 90.542 C 581.475 91.820, 587.325 94.829, 592 97.229 C 607.954 105.421, 616.497 110.299, 620.500 113.503 C 622.700 115.264, 625.850 117.452, 627.500 118.365 C 633.296 121.573, 649.666 133.150, 651.500 135.338 C 652.050 135.994, 654.525 138.082, 657 139.977 C 674.815 153.621, 708.259 188.373, 718.601 203.987 C 719.881 205.919, 723.027 210.200, 725.592 213.500 C 728.157 216.800, 731.661 221.891, 733.378 224.814 C 735.095 227.737, 736.956 230.887, 737.513 231.814 C 740.536 236.848, 744.715 243.866, 746.257 246.499 C 747.223 248.150, 750.674 254.900, 753.925 261.500 C 767.128 288.304, 776.930 315.222, 781.963 338.500 C 783.152 344, 784.757 351.425, 785.529 355 C 789.060 371.353, 791.901 402.307, 791.908 424.500 C 791.918 458.953, 786.559 496.271, 776.613 531 C 774.121 539.700, 767.470 557.317, 762.078 569.500 C 761.104 571.700, 759.676 575.066, 758.904 576.980 C 756.632 582.612, 748.675 598.148, 745.681 602.799 C 744.159 605.163, 742.485 608.088, 741.960 609.299 C 741.436 610.509, 738.970 614.650, 736.480 618.500 C 733.990 622.350, 731.657 626.175, 731.295 627 C 730.933 627.825, 728.921 630.750, 726.824 633.500 C 721.690 640.234, 719.759 642.798, 711.013 654.490 C 702.933 665.292, 666.405 702.458, 658.933 707.480 C 656.495 709.118, 652.250 712.450, 649.500 714.883 C 641.489 721.970, 609.897 742.405, 596.072 749.442 C 593.086 750.962, 589.936 752.572, 589.072 753.019 C 581.491 756.943, 563.704 765.043, 560.500 766.029 C 558.300 766.706, 556.050 767.580, 555.500 767.971 C 554.950 768.362, 549.775 770.146, 544 771.936 C 538.225 773.726, 532.600 775.542, 531.500 775.971 C 520.594 780.226, 493.011 786.282, 474.500 788.486 C 467.900 789.272, 459.125 790.387, 455 790.964 C 445.379 792.310, 404.786 792.326, 395 790.988 C 390.875 790.424, 381.875 789.305, 375 788.502 C 353.198 785.956, 348.223 784.845, 316 775.332 C 306.325 772.476, 296.897 769.341, 292.500 767.518 C 290.850 766.834, 286.800 765.221, 283.500 763.934 C 280.200 762.647, 276.825 761.091, 276 760.475 C 275.175 759.860, 271.575 758.079, 268 756.518 C 256.987 751.709, 241.176 743.240, 232.129 737.303 C 227.383 734.189, 221.700 730.485, 219.500 729.071 C 217.300 727.657, 215.350 726.163, 215.167 725.750 C 214.983 725.337, 214.408 725, 213.887 725 C 212.721 725, 205.963 719.894, 191.107 707.786 C 181.714 700.130, 155.776 675.206, 150 668.286 C 149.175 667.297, 145.292 662.666, 141.371 657.994 C 130.057 644.512, 119.119 629.204, 108.679 612.242 C 105.322 606.789, 93 582.693, 93 581.584 C 93 581.157, 92.183 579.614, 91.185 578.154 C 88.353 574.014, 78 548.481, 78 545.638 C 78 544.802, 77.626 543.887, 77.169 543.605 C 76.712 543.322, 75.762 540.483, 75.058 537.296 C 74.354 534.108, 73.436 531.050, 73.020 530.500 C 72.603 529.950, 71.700 527.025, 71.012 524 C 70.325 520.975, 68.636 514.675, 67.259 510 C 65.882 505.325, 64.175 497.808, 63.465 493.296 C 62.756 488.784, 61.941 484.714, 61.655 484.251 C 61.370 483.789, 60.639 477.581, 60.032 470.455 C 59.426 463.330, 58.429 454.890, 57.817 451.700 C 56.716 445.953, 56.734 445.870, 59.765 442.700 C 65.114 437.107, 67.505 431.294, 67.457 424 C 67.410 416.804, 65.869 413.035, 60.308 406.517 C 55.993 401.460, 51.024 398.987, 43.756 398.281 C 36.568 397.583, 30.794 399.621, 25.339 404.781 C 19.167 410.619, 18.072 412.303, 16.486 418.391 C 15.150 423.524, 15.165 424.747, 16.644 430.632 C 17.997 436.021, 19.109 437.991, 22.967 441.835 L 27.648 446.500 28.855 463.602 C 29.519 473.008, 30.470 482.008, 30.969 483.602 C 31.468 485.196, 32.551 490.775, 33.374 496 C 35.365 508.621, 37.510 518.974, 39.902 527.500 C 40.982 531.350, 42.611 537.187, 43.522 540.472 C 44.433 543.757, 45.760 547.582, 46.472 548.972 C 47.183 550.362, 49.010 555.325, 50.531 560 C 52.052 564.675, 53.588 568.950, 53.944 569.500 C 54.300 570.050, 55.623 573.200, 56.884 576.500 C 60.917 587.049, 64.156 594.379, 66.829 599 C 68.260 601.475, 70.920 606.425, 72.740 610 C 77.929 620.195, 84.061 631.081, 87.422 636.063 C 104.955 662.056, 110.719 670.051, 115.854 675.500 C 117.927 677.700, 122.823 683.325, 126.733 688 C 148.888 714.490, 183.046 742.863, 222.500 767.546 C 232.767 773.969, 262.313 788.577, 272.039 792.038 C 275.593 793.303, 278.950 794.657, 279.500 795.048 C 280.050 795.439, 285.225 797.365, 291 799.329 C 296.775 801.293, 303.895 803.796, 306.822 804.890 C 311.597 806.676, 323.539 809.851, 337.500 813.046 C 340.250 813.676, 347.450 814.990, 353.500 815.967 C 359.550 816.944, 365.625 818.023, 367 818.366 C 369.344 818.950, 394.621 821.094, 416 822.522 C 426.003 823.190, 481.021 819.572, 483.947 818.054 C 484.801 817.610, 488.650 816.931, 492.500 816.544 C 496.350 816.158, 501.300 815.403, 503.500 814.866 C 505.700 814.330, 511.325 813.046, 516 812.013 C 528.803 809.185, 535.917 807.262, 542 804.986 C 545.025 803.855, 552.225 801.350, 558 799.421 C 563.775 797.492, 569.918 795.258, 571.651 794.457 C 573.384 793.655, 575.100 793, 575.463 793 C 575.826 793, 578.683 791.831, 581.812 790.402 C 584.940 788.973, 589.075 787.152, 591 786.354 C 592.925 785.556, 595.400 784.385, 596.500 783.752 C 597.600 783.118, 603 780.267, 608.500 777.417 C 623.726 769.525, 635.070 762.982, 639.500 759.539 C 641.700 757.829, 646.650 754.443, 650.500 752.015 C 663.992 743.506, 691.021 720.930, 707.457 704.441 C 715.666 696.206, 733.770 675.816, 736.706 671.500 C 738.202 669.300, 741.485 665.025, 744.001 662 C 746.518 658.975, 750.304 653.800, 752.415 650.500 C 754.527 647.200, 757.997 641.898, 760.127 638.719 C 762.257 635.539, 764 632.772, 764 632.569 C 764 632.367, 765.788 629.343, 767.973 625.850 C 772.010 619.398, 782.446 598.835, 789.974 582.500 C 798.321 564.385, 805.277 543.530, 810.985 519.500 C 812.030 515.100, 813.835 507.675, 814.997 503 C 816.933 495.209, 818.129 487.632, 821.152 464 C 822.562 452.980, 822.561 396.012, 821.151 385 C 820.553 380.325, 819.437 371.550, 818.672 365.500 C 817.371 355.208, 813.165 335.938, 808.961 321 C 807.955 317.425, 806.825 312.925, 806.450 311 C 806.076 309.075, 805.430 307.050, 805.015 306.500 C 804.601 305.950, 803.708 303.136, 803.030 300.247 C 802.353 297.358, 801.394 294.744, 800.900 294.438 C 800.405 294.132, 800 293.021, 800 291.969 C 800 290.176, 792.227 270.128, 790.033 266.264 C 789.482 265.294, 787.634 261.350, 785.926 257.500 C 779.922 243.969, 771.281 227.332, 766.970 221 C 766.033 219.625, 761.722 212.875, 757.388 206 C 753.055 199.125, 748.134 191.925, 746.453 190 C 744.773 188.075, 741.661 184.025, 739.538 181 C 725.572 161.097, 689.894 125.434, 666.332 107.826 C 654.938 99.312, 632.355 84, 631.191 84 C 630.781 84, 629.360 83.213, 628.034 82.250 C 622.126 77.961, 593.461 63.059, 583.500 59.097 C 580.200 57.784, 575.684 55.908, 573.465 54.928 C 571.246 53.948, 568.096 52.826, 566.465 52.435 C 564.834 52.044, 563.050 51.410, 562.500 51.026 C 560.813 49.847, 550.639 45.991, 545.430 44.556 C 542.719 43.809, 536.675 42.066, 532 40.683 C 523.023 38.027, 518.652 37.027, 502.500 33.934 C 484.351 30.459, 482.580 30.193, 473 29.514 C 467.775 29.143, 462.150 28.462, 460.500 28.001 C 458.850 27.540, 450.187 26.866, 441.248 26.504 C 427.927 25.963, 424.902 26.093, 424.469 27.220 M 395.750 104.668 C 390.938 104.893, 387 105.415, 387 105.826 C 387 106.238, 385.988 106.640, 384.750 106.719 C 376.129 107.275, 359.324 109.381, 358.500 110.009 C 357.950 110.428, 354.140 111.330, 350.033 112.012 C 345.926 112.695, 341.876 113.591, 341.033 114.002 C 340.190 114.414, 332.525 117.042, 324 119.843 C 305.104 126.050, 298.655 128.332, 298 129.042 C 297.725 129.340, 295.587 130.200, 293.250 130.952 C 290.913 131.704, 289 132.627, 289 133.002 C 289 133.377, 287.087 134.256, 284.750 134.956 C 282.413 135.656, 278.925 137.471, 277 138.988 C 275.075 140.506, 272.038 142.065, 270.250 142.453 C 268.462 142.841, 267 143.519, 267 143.958 C 267 144.398, 265.538 145.349, 263.750 146.072 C 261.962 146.795, 260.275 147.667, 260 148.009 C 259.725 148.352, 256.800 150.148, 253.500 152 C 250.200 153.852, 247.275 155.623, 247 155.936 C 246.725 156.248, 245.324 157.108, 243.886 157.848 C 242.448 158.587, 240.001 160.371, 238.448 161.811 C 236.894 163.252, 232.671 166.396, 229.062 168.799 C 225.453 171.202, 221.600 174.018, 220.500 175.057 C 211.874 183.209, 205.398 188.979, 204.863 188.988 C 204.020 189.004, 188 205.193, 188 206.029 C 188 206.387, 186.313 208.252, 184.250 210.176 C 182.188 212.099, 178.700 215.846, 176.500 218.502 C 174.300 221.157, 171.713 224.156, 170.750 225.165 C 169.788 226.174, 169 227.371, 169 227.825 C 169 228.804, 160.242 240.227, 158.810 241.115 C 158.265 241.453, 157.297 242.658, 156.660 243.792 C 151.550 252.879, 147.568 259.581, 147.029 260 C 146.676 260.275, 145.795 261.962, 145.072 263.750 C 144.349 265.538, 143.371 267, 142.898 267 C 142.425 267, 141.731 268.224, 141.355 269.720 C 140.481 273.203, 137.074 279, 135.901 279 C 135.406 279, 135 279.437, 135 279.970 C 135 281.033, 130.845 290.827, 128.484 295.331 C 127.668 296.888, 127 298.562, 127 299.051 C 127 299.541, 125.915 302.317, 124.589 305.220 C 123.263 308.124, 121.863 312.188, 121.478 314.250 C 121.093 316.313, 120.428 318, 120 318 C 119.572 318, 118.907 319.688, 118.522 321.750 C 118.136 323.813, 117.477 325.950, 117.056 326.500 C 116.635 327.050, 115.677 329.637, 114.927 332.250 C 114.177 334.863, 113.212 337, 112.782 337 C 112.352 337, 111.971 338.238, 111.936 339.750 C 111.859 343.021, 109.760 353.079, 108.857 354.500 C 108.508 355.050, 107.658 359.775, 106.969 365 C 106.280 370.225, 105.376 374.950, 104.960 375.500 C 104.545 376.050, 103.643 384.825, 102.956 395 C 101.666 414.122, 102.264 454.547, 104.013 466.500 C 106.503 483.512, 108.122 492.653, 108.888 494.027 C 109.356 494.867, 110.320 498.805, 111.030 502.777 C 111.739 506.750, 112.698 510, 113.160 510 C 113.622 510, 114 510.907, 114 512.016 C 114 514.832, 116.329 522, 117.243 522 C 117.660 522, 118 522.671, 118 523.491 C 118 525.111, 122.393 538.654, 124.490 543.500 C 125.205 545.150, 126.748 548.638, 127.919 551.250 C 129.091 553.863, 130.320 557.350, 130.650 559 C 130.980 560.650, 131.609 562, 132.047 562 C 132.486 562, 133.401 563.688, 134.080 565.750 C 134.759 567.813, 135.886 569.950, 136.584 570.500 C 137.282 571.050, 138.860 573.525, 140.092 576 C 141.323 578.475, 142.878 581.175, 143.547 582 C 144.216 582.825, 145.102 584.625, 145.517 586 C 145.931 587.375, 146.551 588.725, 146.894 589 C 148.104 589.969, 153 597.970, 153 598.979 C 153 599.540, 153.395 600, 153.879 600 C 154.362 600, 155.278 601.237, 155.915 602.750 C 156.924 605.146, 159.621 608.683, 165.447 615.250 C 166.301 616.212, 167 617.278, 167 617.618 C 167 617.958, 168.238 619.687, 169.750 621.460 C 171.263 623.233, 173.175 625.729, 174 627.006 C 177.269 632.065, 200.555 655.946, 211.535 665.500 C 215.328 668.800, 219.469 672.502, 220.737 673.727 C 222.006 674.951, 224.018 676.475, 225.209 677.112 C 226.400 677.749, 227.852 678.668, 228.437 679.155 C 233.386 683.272, 250.810 695.338, 255.567 697.943 C 258.830 699.729, 261.950 701.545, 262.500 701.977 C 263.050 702.409, 269.125 705.686, 276 709.259 C 282.875 712.833, 289.850 716.483, 291.500 717.372 C 293.150 718.261, 295.175 718.993, 296 719 C 296.825 719.007, 298.694 719.635, 300.153 720.397 C 301.613 721.158, 304.538 722.339, 306.653 723.021 C 308.769 723.703, 310.950 724.600, 311.500 725.015 C 312.050 725.430, 314.075 726.098, 316 726.500 C 317.925 726.902, 319.950 727.559, 320.500 727.960 C 321.050 728.361, 323.750 729.251, 326.500 729.938 C 329.250 730.624, 332.400 731.570, 333.500 732.041 C 334.600 732.511, 338.200 733.400, 341.500 734.016 C 344.800 734.633, 348.850 735.747, 350.500 736.493 C 352.150 737.239, 356.425 738.167, 360 738.555 C 363.575 738.943, 366.956 739.619, 367.514 740.057 C 368.071 740.494, 374.146 741.372, 381.014 742.007 C 387.881 742.642, 395.750 743.411, 398.500 743.715 C 401.250 744.019, 407.438 744.465, 412.250 744.705 L 421 745.142 421 730.664 L 421 716.187 411.250 715.599 C 389.957 714.316, 367.347 711.688, 363.500 710.048 C 362.400 709.580, 358.125 708.650, 354 707.982 C 349.875 707.314, 346.050 706.418, 345.500 705.992 C 344.950 705.566, 341.800 704.669, 338.500 704 C 335.200 703.331, 332.050 702.432, 331.500 702.003 C 330.950 701.574, 327.913 700.651, 324.750 699.952 C 321.587 699.253, 319 698.353, 319 697.952 C 319 697.551, 317.470 696.936, 315.600 696.585 C 313.731 696.234, 311.675 695.313, 311.031 694.538 C 310.388 693.763, 308.543 692.839, 306.931 692.485 C 305.319 692.131, 304 691.427, 304 690.921 C 304 690.414, 303.563 690, 303.030 690 C 301.662 690, 291.529 685.476, 285 681.950 C 281.975 680.316, 277.813 678.241, 275.750 677.338 C 273.688 676.435, 272 675.315, 272 674.848 C 272 674.382, 271.394 674, 270.653 674 C 269.912 674, 268.268 673.100, 267 672 C 265.732 670.900, 264.383 670, 264.003 670 C 263.622 670, 262.004 668.876, 260.406 667.501 C 258.807 666.127, 257.144 665.002, 256.708 665.001 C 255.901 665, 254.373 663.876, 250.928 660.750 C 249.868 659.788, 248.745 659, 248.433 659 C 248.122 659, 246.209 657.765, 244.183 656.256 C 240.547 653.547, 238.599 651.847, 230.233 644.084 C 227.886 641.906, 225.040 639.830, 223.908 639.471 C 222.775 639.111, 222.021 638.645, 222.231 638.435 C 222.441 638.225, 219.303 634.554, 215.256 630.277 C 211.209 625.999, 206.768 621.263, 205.386 619.750 C 204.005 618.237, 202.453 617, 201.937 617 C 201.422 617, 201 616.373, 201 615.607 C 201 614.841, 200.396 613.982, 199.658 613.699 C 198.921 613.416, 196.698 610.780, 194.718 607.842 C 192.739 604.904, 189.968 601.193, 188.560 599.594 C 187.152 597.996, 186 596.409, 186 596.067 C 186 595.725, 184.763 594.090, 183.250 592.432 C 179.980 588.850, 177.195 584.786, 174.731 580 C 171.119 572.985, 169.676 570.490, 168.948 570 C 167.832 569.249, 163 559.885, 163 558.474 C 163 557.798, 162.354 556.709, 161.564 556.053 C 160.775 555.398, 159.847 553.580, 159.503 552.014 C 159.159 550.448, 158.255 548.928, 157.494 548.636 C 156.733 548.344, 155.810 546.506, 155.444 544.553 C 155.077 542.599, 154.422 541, 153.988 541 C 153.555 541, 152.660 538.750, 152 536 C 151.340 533.250, 150.395 531, 149.900 531 C 149.405 531, 148.997 530.212, 148.994 529.250 C 148.990 528.288, 148.376 526.328, 147.628 524.895 C 146.881 523.462, 145.698 519.909, 145 517 C 144.302 514.091, 143.139 510.568, 142.415 509.173 C 141.691 507.777, 140.799 504.243, 140.434 501.318 C 140.069 498.393, 139.437 496, 139.030 496 C 138.623 496, 137.702 491.837, 136.983 486.750 C 136.264 481.663, 135.291 477.244, 134.821 476.930 C 134.351 476.617, 133.569 473.467, 133.084 469.930 C 132.599 466.394, 131.885 462.375, 131.496 461 C 130.211 456.445, 129.740 403.991, 130.904 395 C 133.202 377.253, 133.992 372.622, 134.817 372.070 C 135.284 371.756, 136.224 367.457, 136.904 362.516 C 137.584 357.574, 138.497 353.299, 138.932 353.016 C 139.367 352.732, 140.049 350.250, 140.448 347.500 C 140.847 344.750, 141.775 341.150, 142.512 339.500 C 143.248 337.850, 144.164 334.925, 144.546 333 C 144.928 331.075, 145.823 328.359, 146.535 326.965 C 147.246 325.571, 148.141 322.763, 148.524 320.724 C 148.906 318.686, 149.583 317.242, 150.028 317.517 C 150.473 317.792, 151.150 316.551, 151.532 314.759 C 151.914 312.966, 153.009 309.700, 153.966 307.500 C 154.923 305.300, 155.982 302.712, 156.321 301.750 C 156.660 300.788, 157.401 300, 157.969 300 C 158.536 300, 158.994 299.438, 158.986 298.750 C 158.973 297.484, 168.007 278.921, 169.085 278 C 169.407 277.725, 171.055 274.958, 172.746 271.851 C 176.443 265.060, 179.098 260.852, 180.537 259.500 C 182.134 258.001, 188.146 250.092, 191.521 245.051 C 193.160 242.604, 197.537 237.463, 201.250 233.625 C 204.962 229.788, 208 226.359, 208 226.006 C 208 225.043, 224.232 209, 225.207 209 C 225.670 209, 227.951 206.939, 230.275 204.420 C 234.304 200.052, 246.969 190, 248.444 190 C 248.828 190, 249.750 189.438, 250.491 188.750 C 251.233 188.063, 253.012 186.600, 254.445 185.500 C 255.878 184.400, 257.714 182.905, 258.525 182.179 C 259.336 181.452, 260.014 181.227, 260.030 181.679 C 260.047 182.130, 260.519 181.713, 261.080 180.750 C 261.641 179.787, 262.752 179, 263.550 179 C 264.347 179, 265 178.527, 265 177.948 C 265 177.369, 266.350 176.425, 268 175.850 C 269.650 175.275, 271 174.434, 271 173.982 C 271 173.529, 272.350 172.862, 274 172.500 C 275.650 172.138, 277 171.476, 277 171.029 C 277 170.583, 278.762 169.512, 280.915 168.651 C 283.068 167.789, 285.098 166.650, 285.426 166.119 C 285.755 165.588, 287.368 164.858, 289.011 164.497 C 290.655 164.136, 292 163.427, 292 162.921 C 292 162.414, 292.563 162, 293.250 162 C 294.520 162.001, 307.085 155.976, 308 154.927 C 308.275 154.612, 312.550 153.040, 317.500 151.434 C 322.450 149.827, 326.725 148.226, 327 147.877 C 327.275 147.527, 330.200 146.684, 333.500 146.002 C 336.800 145.321, 340.850 144.188, 342.500 143.485 C 344.150 142.781, 347.863 141.892, 350.750 141.509 C 353.637 141.126, 356 140.484, 356 140.083 C 356 139.681, 361.063 138.764, 367.250 138.044 C 373.438 137.324, 379.008 136.334, 379.629 135.845 C 380.250 135.356, 384.525 134.679, 389.129 134.341 C 393.733 134.003, 397.950 133.384, 398.500 132.965 C 399.794 131.980, 444 131.991, 444 132.976 C 444 133.387, 448.048 133.953, 452.996 134.236 C 457.944 134.518, 462.556 135.189, 463.246 135.727 C 463.936 136.265, 469.225 137.260, 475 137.939 C 480.775 138.618, 485.950 139.525, 486.500 139.955 C 487.050 140.385, 490.650 141.338, 494.500 142.074 C 502.633 143.629, 502.074 143.498, 504 144.287 C 504.825 144.625, 507.525 145.417, 510 146.048 C 512.475 146.679, 514.950 147.550, 515.500 147.982 C 516.050 148.415, 518.075 149.097, 520 149.498 C 521.925 149.899, 525.525 151.111, 528 152.193 C 533.887 154.765, 548.428 161.631, 553.500 164.234 C 555.700 165.363, 558.850 166.965, 560.500 167.796 C 566.222 170.675, 577.502 177.466, 577.833 178.231 C 578.017 178.654, 578.667 179, 579.279 179 C 579.890 179, 581.540 180.079, 582.945 181.398 C 584.350 182.716, 587.264 184.725, 589.419 185.862 C 591.575 186.999, 593.600 188.285, 593.919 188.720 C 594.239 189.155, 597.200 191.486, 600.500 193.899 C 603.800 196.312, 607.400 199.114, 608.500 200.125 C 609.600 201.136, 613.593 204.784, 617.373 208.231 C 628.778 218.634, 641 230.927, 641 231.995 C 641 232.548, 641.450 233, 642 233 C 642.550 233, 643 233.407, 643 233.904 C 643 234.736, 647.033 239.753, 651.250 244.168 C 652.212 245.176, 653 246.372, 653 246.826 C 653 247.280, 654.125 248.708, 655.500 250 C 656.875 251.292, 658 252.945, 658 253.674 C 658 254.403, 658.464 255, 659.031 255 C 659.599 255, 660.353 255.788, 660.708 256.750 C 661.063 257.713, 662.356 259.850, 663.581 261.500 C 664.807 263.150, 667.503 267.425, 669.572 271 C 671.642 274.575, 673.649 277.725, 674.033 278 C 674.417 278.275, 675.046 279.510, 675.431 280.744 C 675.816 281.978, 676.664 283.571, 677.316 284.283 C 679.180 286.320, 681 289.838, 681 291.403 C 681 292.190, 681.337 292.983, 681.750 293.167 C 682.791 293.629, 690.959 310.772, 691.034 312.651 C 691.053 313.118, 691.937 315.300, 693 317.500 C 694.063 319.700, 694.950 322.175, 694.972 323 C 694.994 323.825, 695.719 325.850, 696.582 327.500 C 697.445 329.150, 698.603 332.930, 699.154 335.900 C 699.706 338.870, 700.796 341.939, 701.578 342.721 C 702.360 343.503, 703 345.209, 703 346.512 C 703 347.816, 703.394 349.125, 703.875 349.423 C 704.356 349.720, 705.289 353.684, 705.949 358.232 C 706.609 362.779, 707.539 367.400, 708.016 368.500 C 709.091 370.976, 711 385.795, 711 391.659 C 711 394.047, 711.450 396, 712 396 C 712.550 396, 713 397.815, 713 400.034 C 713 403.106, 712.345 404.717, 710.250 406.794 C 708.738 408.294, 706.885 410.866, 706.133 412.510 C 705.382 414.155, 704.369 416.281, 703.883 417.236 C 702.093 420.755, 702.895 429.859, 705.436 434.873 C 707.723 439.387, 713.980 446, 715.963 446 C 716.455 446, 717.574 446.717, 718.450 447.593 C 719.574 448.717, 722.021 449.205, 726.771 449.254 C 733.647 449.324, 738.855 447.315, 743.194 442.920 C 744.126 441.976, 745.251 441.046, 745.694 440.852 C 746.137 440.658, 747.620 438.925, 748.989 437 C 750.992 434.182, 751.544 432.038, 751.822 426 C 752.251 416.666, 750.589 412.397, 744.140 406.267 C 740.796 403.088, 740.776 403.015, 739.850 390.287 C 739.338 383.254, 738.513 376.600, 738.016 375.500 C 737.518 374.400, 736.810 370.575, 736.442 367 C 736.074 363.425, 735.488 360.050, 735.139 359.500 C 734.791 358.950, 733.750 354.900, 732.825 350.500 C 730.453 339.209, 727.678 328.589, 726.946 328 C 726.604 327.725, 725.784 325.321, 725.124 322.657 C 724.464 319.994, 723.300 316.844, 722.536 315.657 C 721.773 314.471, 720.840 311.813, 720.463 309.750 C 720.086 307.688, 719.377 306, 718.889 306 C 718.400 306, 718 305.431, 718 304.735 C 718 304.040, 717.100 301.791, 716 299.739 C 714.900 297.686, 714 295.528, 714 294.942 C 714 293.346, 708.786 282.551, 707.830 282.167 C 707.373 281.983, 707 281.263, 707 280.566 C 707 279.868, 705.931 277.288, 704.626 274.832 C 703.320 272.376, 701.937 269.376, 701.552 268.165 C 701.168 266.954, 699.536 264.521, 697.927 262.759 C 696.317 260.996, 695 259.135, 695 258.622 C 695 258.109, 693.971 256.296, 692.713 254.594 C 691.455 252.892, 689.318 249.362, 687.964 246.750 C 686.611 244.137, 685.154 242, 684.727 242 C 684.300 242, 683.523 240.875, 683 239.500 C 682.477 238.125, 681.619 237, 681.092 237 C 680.566 237, 679.849 236.100, 679.500 235 C 679.151 233.900, 678.221 233, 677.433 233 C 676.645 233, 676 232.520, 676 231.933 C 676 231.019, 672.935 226.467, 669.500 222.281 C 668.950 221.611, 667.375 219.605, 666 217.823 C 664.625 216.042, 661.250 212.240, 658.500 209.375 C 655.750 206.510, 650.990 201.541, 647.923 198.333 C 644.855 195.125, 640.130 190.587, 637.423 188.249 C 634.715 185.911, 630.878 182.424, 628.897 180.499 C 626.915 178.575, 624.825 177, 624.254 177 C 623.682 177, 622.985 176.403, 622.705 175.673 C 622.425 174.944, 618.889 172.131, 614.848 169.423 C 610.807 166.715, 605.524 162.813, 603.109 160.750 C 600.694 158.688, 598.155 157, 597.466 157 C 596.777 157, 595.955 156.325, 595.638 155.500 C 595.322 154.675, 594.429 154, 593.654 154 C 592.879 154, 591.686 153.327, 591.004 152.505 C 590.321 151.682, 588.031 150.490, 585.914 149.856 C 583.797 149.222, 582.273 148.368, 582.526 147.958 C 582.779 147.549, 581.896 146.940, 580.563 146.605 C 579.230 146.271, 577.534 145.435, 576.794 144.748 C 576.054 144.062, 573.210 142.395, 570.474 141.044 C 567.738 139.693, 564.466 137.811, 563.203 136.863 C 561.940 135.914, 559.577 134.846, 557.953 134.490 C 556.329 134.133, 555 133.427, 555 132.921 C 555 132.414, 554.320 132, 553.489 132 C 552.658 132, 550.071 131.121, 547.739 130.046 C 542.906 127.818, 536.748 125.540, 529.500 123.299 C 526.750 122.448, 524.050 121.410, 523.500 120.992 C 522.950 120.573, 520.940 119.897, 519.033 119.488 C 517.126 119.080, 514.876 118.397, 514.033 117.970 C 513.190 117.544, 510.475 116.620, 508 115.917 C 505.525 115.215, 503.050 114.347, 502.500 113.989 C 501.950 113.632, 497.675 112.754, 493 112.038 C 488.325 111.323, 484.050 110.396, 483.500 109.979 C 482.950 109.561, 477.550 108.682, 471.500 108.025 C 457.037 106.454, 457.675 106.552, 456.310 105.699 C 454.938 104.842, 408.787 104.057, 395.750 104.668" stroke="none" fill="#c4c4c4" fill-rule="evenodd"/><path d="M 423.482 27.250 C 423.175 28.488, 423.054 35.800, 423.212 43.500 L 423.500 57.500 438 58.159 C 445.975 58.522, 456.325 59.061, 461 59.356 C 467.228 59.750, 468.656 59.639, 466.343 58.942 C 464.606 58.419, 454.481 57.655, 443.843 57.245 L 424.500 56.500 424.500 41.500 L 424.500 26.500 437.500 26.634 C 447.374 26.736, 449.178 26.580, 445 25.983 C 441.975 25.551, 436.021 25.153, 431.769 25.099 C 424.544 25.006, 424.002 25.147, 423.482 27.250 M 460.500 27.919 C 461.600 28.354, 466.775 29.014, 472 29.384 C 477.225 29.754, 483.075 30.329, 485 30.661 C 486.925 30.993, 488.176 30.919, 487.780 30.496 C 487.021 29.685, 466.624 27.047, 461.500 27.097 C 458.996 27.122, 458.831 27.258, 460.500 27.919 M 491.142 31.430 C 491.874 32.214, 509.176 35.157, 509.739 34.594 C 510.220 34.113, 501.872 32.242, 495.500 31.403 C 492.750 31.040, 490.789 31.053, 491.142 31.430 M 513 35.834 C 513.825 36.338, 516.750 37.027, 519.500 37.363 C 525.627 38.114, 522.576 36.564, 516 35.585 C 513.118 35.157, 512.039 35.246, 513 35.834 M 530 39.998 C 532.377 40.797, 545.240 44.565, 549.500 45.711 C 550.600 46.006, 551.150 45.880, 550.722 45.430 C 549.779 44.437, 531.112 38.986, 529 39.087 C 528.175 39.126, 528.625 39.536, 530 39.998 M 555.896 48.092 C 558.313 49.164, 560.520 49.813, 560.799 49.534 C 561.414 48.919, 554.589 45.971, 552.782 46.071 C 552.077 46.109, 553.478 47.019, 555.896 48.092 M 562.318 50.652 C 563.363 51.696, 571.283 54.050, 571.849 53.485 C 572.337 52.996, 568.918 51.637, 564.502 50.565 C 562.853 50.165, 561.871 50.204, 562.318 50.652 M 573.323 54.656 C 574.488 55.822, 588.259 61.074, 588.781 60.552 C 589.059 60.274, 588.434 59.745, 587.393 59.375 C 586.352 59.006, 582.926 57.645, 579.780 56.352 C 573.954 53.956, 572.149 53.482, 573.323 54.656 M 473.223 60.557 C 473.937 61.270, 494.202 64.131, 494.739 63.594 C 495.250 63.083, 491.404 62.275, 482.500 61.024 C 474.384 59.883, 472.452 59.785, 473.223 60.557 M 590.195 61.529 C 590.486 61.819, 594.273 63.844, 598.612 66.028 C 602.950 68.212, 610.712 72.285, 615.859 75.080 C 621.006 77.875, 624.948 79.724, 624.617 79.190 C 624.287 78.656, 621.826 77.073, 619.149 75.673 C 616.472 74.273, 612.305 71.973, 609.891 70.561 C 601.856 65.865, 588.327 59.660, 590.195 61.529 M 498.618 64.904 C 499.783 65.417, 502.933 66.106, 505.618 66.434 C 509.066 66.856, 509.878 66.756, 508.382 66.096 C 507.217 65.583, 504.067 64.894, 501.382 64.566 C 497.934 64.144, 497.122 64.244, 498.618 64.904 M 511 67.394 C 511 67.685, 512.913 68.417, 515.250 69.021 C 517.587 69.625, 520.344 70.365, 521.375 70.667 C 522.478 70.989, 522.997 70.805, 522.636 70.220 C 522.298 69.674, 520.330 68.927, 518.261 68.560 C 516.192 68.193, 513.712 67.662, 512.750 67.379 C 511.788 67.097, 511 67.103, 511 67.394 M 524 71.429 C 524 72.153, 535.180 75.154, 535.751 74.583 C 536.344 73.990, 535.388 73.604, 529.500 72.060 C 525.110 70.909, 524 70.782, 524 71.429 M 538.424 75.877 C 539.068 76.919, 548.032 79.301, 548.720 78.613 C 548.983 78.351, 546.821 77.430, 543.917 76.568 C 537.750 74.737, 537.717 74.732, 538.424 75.877 M 550.240 79.532 C 551.125 80.466, 564.712 86, 566.119 86 C 566.661 86, 570.793 87.868, 575.302 90.152 C 590.209 97.701, 591.189 98.144, 591.738 97.595 C 592.038 97.295, 590.307 96.131, 587.892 95.007 C 585.476 93.883, 581.475 91.896, 579 90.592 C 576.525 89.287, 571.350 86.986, 567.500 85.477 C 563.650 83.969, 559.150 82.169, 557.500 81.478 C 553.078 79.627, 549.394 78.640, 550.240 79.532 M 633 84.396 C 633 84.613, 635.362 86.289, 638.250 88.118 C 641.138 89.948, 645.697 93.160, 648.383 95.257 C 651.068 97.353, 653.543 98.766, 653.883 98.397 C 654.222 98.028, 653.894 97.511, 653.153 97.247 C 652.412 96.984, 650.387 95.549, 648.653 94.057 C 642.922 89.129, 633 83.005, 633 84.396 M 593 98.436 C 593 99.126, 604.197 105.136, 604.646 104.687 C 604.891 104.443, 603.158 103.134, 600.795 101.779 C 596.338 99.222, 593 97.791, 593 98.436 M 655.500 99.700 C 656.050 100.220, 660.100 103.309, 664.500 106.564 C 668.900 109.820, 677.675 116.943, 684 122.394 C 699.561 135.805, 701.580 137.357, 694.419 130.404 C 691.074 127.157, 686.688 123.150, 684.671 121.500 C 682.654 119.850, 679.541 117.237, 677.752 115.694 C 671.991 110.724, 659.575 101.355, 657 100.036 C 655.625 99.332, 654.950 99.181, 655.500 99.700 M 404.500 102.689 C 392.831 103.185, 374.221 104.958, 369.731 106.001 C 367.404 106.541, 361.900 107.638, 357.500 108.438 C 342.759 111.119, 334.977 113.205, 325.500 117.016 C 324.400 117.458, 319.450 119.038, 314.500 120.526 C 309.550 122.015, 304.600 123.784, 303.500 124.458 C 302.400 125.132, 300.221 125.999, 298.658 126.384 C 292.591 127.879, 248.388 151.080, 243.275 155.452 C 242.601 156.029, 241.026 157.272, 239.775 158.215 C 238.524 159.158, 235.151 161.746, 232.279 163.965 C 229.408 166.184, 226.790 168, 226.462 168 C 224.996 168, 203.755 186.401, 194.588 195.613 C 190.268 199.954, 176.758 214.492, 173.489 218.317 C 172.934 218.968, 169.334 223.775, 165.491 229 C 161.648 234.225, 158.180 238.645, 157.784 238.823 C 157.388 239, 155.616 241.700, 153.848 244.823 C 152.079 247.945, 150.363 250.725, 150.033 251 C 149.202 251.694, 141.457 264.939, 137.862 271.814 C 136.226 274.941, 133.451 280.241, 131.694 283.591 C 129.937 286.941, 127.961 290.991, 127.303 292.591 C 122.484 304.299, 118.804 313.922, 117.623 317.898 C 116.860 320.468, 115.113 325.480, 113.741 329.035 C 103.909 354.525, 97.501 406.047, 99.864 440.622 C 101.129 459.141, 103.254 477.995, 104.866 485 C 110.660 510.185, 115.282 526.293, 119.931 537.500 C 120.387 538.600, 122.032 542.875, 123.587 547 C 125.141 551.125, 126.948 555.400, 127.602 556.500 C 128.256 557.600, 129.113 559.573, 129.506 560.884 C 129.898 562.195, 131.687 565.795, 133.481 568.884 C 135.275 571.973, 138.420 577.650, 140.471 581.500 C 147.529 594.747, 157.709 609.937, 168.285 623 C 168.953 623.826, 170.365 625.851, 171.423 627.500 C 172.481 629.150, 177.206 634.558, 181.923 639.519 C 186.640 644.479, 192.300 650.554, 194.500 653.019 C 196.700 655.483, 200.517 659.075, 202.982 661 C 205.448 662.925, 208.183 665.175, 209.061 666 C 220.218 676.487, 222.523 678.371, 232 684.748 C 233.375 685.673, 237.674 688.695, 241.554 691.465 C 250.082 697.553, 251.771 698.656, 255 700.246 C 256.375 700.923, 258.094 702.044, 258.820 702.737 C 259.546 703.430, 261.233 704.271, 262.570 704.607 C 263.906 704.942, 265 705.583, 265 706.031 C 265 706.479, 266.688 707.395, 268.750 708.067 C 270.813 708.740, 272.725 709.562, 273 709.895 C 273.275 710.228, 275.750 711.601, 278.500 712.947 C 281.250 714.293, 284.625 716.119, 286 717.005 C 287.375 717.890, 291.875 719.866, 296 721.395 C 300.125 722.924, 304.850 724.789, 306.500 725.539 C 308.150 726.290, 313.550 728.091, 318.500 729.542 C 323.450 730.993, 328.400 732.582, 329.500 733.073 C 330.600 733.564, 333.525 734.425, 336 734.986 C 338.475 735.548, 343.650 736.931, 347.500 738.059 C 361.415 742.137, 387.935 745.695, 408 746.176 L 421.500 746.500 421.775 730.250 L 422.050 714 414.775 713.980 C 410.774 713.969, 404.575 713.550, 401 713.047 C 397.425 712.545, 390.900 711.828, 386.500 711.453 C 382.100 711.078, 376.475 710.422, 374 709.994 C 365.126 708.460, 352.445 705.869, 349.500 704.988 C 347.850 704.495, 342.450 702.904, 337.500 701.454 C 332.550 700.004, 327.082 698.184, 325.349 697.409 C 323.616 696.634, 321.634 696, 320.945 696 C 319.809 696, 316.514 694.585, 304.434 688.910 C 302.198 687.860, 299.836 687, 299.184 687 C 298.533 687, 298 686.550, 298 686 C 298 685.450, 297.387 685, 296.638 685 C 294.205 685, 268.114 670.855, 264.810 667.744 C 264.083 667.060, 258.991 663.483, 253.494 659.795 C 247.997 656.108, 241.250 651.037, 238.500 648.526 C 235.750 646.016, 232.024 642.733, 230.221 641.231 C 218.584 631.540, 200.527 612.049, 190.729 598.606 C 186.277 592.497, 182.113 587.050, 181.474 586.500 C 178.249 583.722, 157.551 544.986, 153.895 534.885 C 152.624 531.373, 151.005 527.375, 150.298 526 C 149.591 524.625, 149.010 522.967, 149.006 522.315 C 149.003 521.663, 148.478 519.863, 147.839 518.315 C 145.364 512.313, 139.251 489.329, 137.930 481.062 C 137.360 477.496, 136.519 474.110, 136.061 473.539 C 135.602 472.967, 134.715 466.875, 134.088 460 C 133.462 453.125, 132.469 442.265, 131.881 435.867 C 131.129 427.678, 131.124 421.018, 131.865 413.367 C 132.444 407.390, 133.454 396.313, 134.109 388.750 C 134.764 381.187, 135.641 375, 136.056 375 C 136.472 375, 137.126 372.719, 137.509 369.931 C 138.528 362.525, 144.933 337.241, 146.992 332.500 C 147.470 331.400, 148.401 328.700, 149.061 326.500 C 149.721 324.300, 150.590 322.050, 150.992 321.500 C 151.395 320.950, 152.046 319.157, 152.440 317.516 C 152.834 315.874, 154.246 312.149, 155.578 309.236 C 156.910 306.324, 158 303.542, 158 303.054 C 158 302.566, 158.360 302.017, 158.799 301.833 C 159.238 301.650, 161.826 297, 164.549 291.500 C 167.272 286, 169.809 281.266, 170.187 280.980 C 170.566 280.693, 171.384 279.343, 172.007 277.980 C 176.064 269.093, 192.839 245.727, 203.673 233.873 C 219.272 216.805, 246.162 192, 249.066 192 C 249.501 192, 250.452 191.438, 251.179 190.750 C 251.905 190.063, 254.525 188.165, 257 186.534 C 259.475 184.903, 262.266 182.878, 263.202 182.034 C 266.278 179.262, 267.477 178.408, 269.246 177.732 C 270.206 177.366, 275.156 174.670, 280.246 171.742 C 285.336 168.813, 291.075 165.773, 293 164.985 C 294.925 164.197, 300.748 161.403, 305.940 158.776 C 311.132 156.149, 316.082 153.997, 316.940 153.994 C 317.798 153.990, 319.707 153.358, 321.183 152.588 C 322.658 151.818, 325.358 150.864, 327.183 150.467 C 329.007 150.070, 331.625 149.274, 333 148.699 C 341.572 145.112, 373.999 138.177, 393 135.867 C 403.149 134.633, 456.914 135.195, 459.033 136.557 C 459.840 137.075, 465 138.258, 470.500 139.184 C 485.215 141.661, 504.096 146.234, 510.315 148.826 C 511.863 149.472, 513.549 150, 514.061 150 C 516.496 150, 533.548 156.497, 538 159.121 C 538.825 159.607, 540.625 160.471, 542 161.041 C 548.513 163.742, 574.014 177.335, 576.631 179.500 C 579.961 182.256, 583.111 184.505, 589.500 188.688 C 593.350 191.209, 596.725 193.550, 597 193.891 C 597.275 194.232, 600.200 196.519, 603.500 198.973 C 612.020 205.309, 638.500 231.926, 646.306 242 C 649.929 246.675, 654.067 251.941, 655.503 253.702 C 659.839 259.021, 667.195 270.322, 668.227 273.250 C 668.760 274.762, 669.549 276, 669.981 276 C 670.413 276, 671.032 276.788, 671.356 277.750 C 671.680 278.712, 673.276 281.750, 674.901 284.500 C 678.208 290.093, 687 307.580, 687 308.563 C 687 308.912, 687.653 310.616, 688.452 312.349 C 691.246 318.415, 697.703 336.534, 698.393 340.250 C 698.777 342.313, 699.420 344, 699.823 344 C 701.513 344, 708.612 380.483, 709.552 394 L 710.213 403.500 706.603 408 C 702.524 413.085, 701.003 417.453, 701.029 424 C 701.072 434.495, 705.249 441.929, 714.421 447.837 C 719.293 450.975, 719.846 451.095, 728 450.784 C 736.075 450.476, 736.784 450.260, 742.178 446.457 C 749.091 441.583, 751.193 438.969, 753.343 432.572 C 756.606 422.866, 754.433 413.837, 746.877 405.700 L 742.254 400.722 741.576 390.611 C 741.203 385.050, 740.491 378.025, 739.994 375 C 737.550 360.124, 732.729 337.656, 731.090 333.500 C 730.656 332.400, 729.265 328.125, 727.997 324 C 725.835 316.960, 724.821 314.356, 720.114 303.750 C 719.076 301.413, 717.072 296.575, 715.659 293 C 710.817 280.747, 702.094 264.644, 693.878 252.790 C 692.845 251.300, 692 249.758, 692 249.364 C 692 248.444, 683.628 236.062, 681.254 233.470 C 680.261 232.387, 677.242 228.575, 674.544 225 C 660.875 206.887, 636.618 182.782, 618.694 169.500 C 614.983 166.750, 608.921 162.216, 605.223 159.425 C 594.461 151.302, 560.817 132.665, 548.500 128.003 C 545.200 126.754, 541.600 125.366, 540.500 124.919 C 532.926 121.838, 525.049 119.020, 522.500 118.480 C 520.850 118.130, 518.600 117.462, 517.500 116.994 C 510.327 113.942, 490.930 108.885, 479 106.955 C 463.579 104.461, 459.617 104.026, 443.500 103.049 C 427.346 102.071, 420.535 102.008, 404.500 102.689 M 395.750 104.668 C 390.938 104.893, 387 105.415, 387 105.826 C 387 106.238, 385.988 106.640, 384.750 106.719 C 376.129 107.275, 359.324 109.381, 358.500 110.009 C 357.950 110.428, 354.140 111.330, 350.033 112.012 C 345.926 112.695, 341.876 113.591, 341.033 114.002 C 340.190 114.414, 332.525 117.042, 324 119.843 C 305.104 126.050, 298.655 128.332, 298 129.042 C 297.725 129.340, 295.587 130.200, 293.250 130.952 C 290.913 131.704, 289 132.627, 289 133.002 C 289 133.377, 287.087 134.256, 284.750 134.956 C 282.413 135.656, 278.925 137.471, 277 138.988 C 275.075 140.506, 272.038 142.065, 270.250 142.453 C 268.462 142.841, 267 143.519, 267 143.958 C 267 144.398, 265.538 145.349, 263.750 146.072 C 261.962 146.795, 260.275 147.667, 260 148.009 C 259.725 148.352, 256.800 150.148, 253.500 152 C 250.200 153.852, 247.275 155.623, 247 155.936 C 246.725 156.248, 245.324 157.108, 243.886 157.848 C 242.448 158.587, 240.001 160.371, 238.448 161.811 C 236.894 163.252, 232.671 166.396, 229.062 168.799 C 225.453 171.202, 221.600 174.018, 220.500 175.057 C 211.874 183.209, 205.398 188.979, 204.863 188.988 C 204.020 189.004, 188 205.193, 188 206.029 C 188 206.387, 186.313 208.252, 184.250 210.176 C 182.188 212.099, 178.700 215.846, 176.500 218.502 C 174.300 221.157, 171.713 224.156, 170.750 225.165 C 169.788 226.174, 169 227.371, 169 227.825 C 169 228.804, 160.242 240.227, 158.810 241.115 C 158.265 241.453, 157.297 242.658, 156.660 243.792 C 151.550 252.879, 147.568 259.581, 147.029 260 C 146.676 260.275, 145.795 261.962, 145.072 263.750 C 144.349 265.538, 143.371 267, 142.898 267 C 142.425 267, 141.731 268.224, 141.355 269.720 C 140.481 273.203, 137.074 279, 135.901 279 C 135.406 279, 135 279.437, 135 279.970 C 135 281.033, 130.845 290.827, 128.484 295.331 C 127.668 296.888, 127 298.562, 127 299.051 C 127 299.541, 125.915 302.317, 124.589 305.220 C 123.263 308.124, 121.863 312.188, 121.478 314.250 C 121.093 316.313, 120.428 318, 120 318 C 119.572 318, 118.907 319.688, 118.522 321.750 C 118.136 323.813, 117.477 325.950, 117.056 326.500 C 116.635 327.050, 115.677 329.637, 114.927 332.250 C 114.177 334.863, 113.212 337, 112.782 337 C 112.352 337, 111.971 338.238, 111.936 339.750 C 111.859 343.021, 109.760 353.079, 108.857 354.500 C 108.508 355.050, 107.658 359.775, 106.969 365 C 106.280 370.225, 105.376 374.950, 104.960 375.500 C 104.545 376.050, 103.643 384.825, 102.956 395 C 101.666 414.122, 102.264 454.547, 104.013 466.500 C 106.503 483.512, 108.122 492.653, 108.888 494.027 C 109.356 494.867, 110.320 498.805, 111.030 502.777 C 111.739 506.750, 112.698 510, 113.160 510 C 113.622 510, 114 510.907, 114 512.016 C 114 514.832, 116.329 522, 117.243 522 C 117.660 522, 118 522.671, 118 523.491 C 118 525.111, 122.393 538.654, 124.490 543.500 C 125.205 545.150, 126.748 548.638, 127.919 551.250 C 129.091 553.863, 130.320 557.350, 130.650 559 C 130.980 560.650, 131.609 562, 132.047 562 C 132.486 562, 133.401 563.688, 134.080 565.750 C 134.759 567.813, 135.886 569.950, 136.584 570.500 C 137.282 571.050, 138.860 573.525, 140.092 576 C 141.323 578.475, 142.878 581.175, 143.547 582 C 144.216 582.825, 145.102 584.625, 145.517 586 C 145.931 587.375, 146.551 588.725, 146.894 589 C 148.104 589.969, 153 597.970, 153 598.979 C 153 599.540, 153.395 600, 153.879 600 C 154.362 600, 155.278 601.237, 155.915 602.750 C 156.924 605.146, 159.621 608.683, 165.447 615.250 C 166.301 616.212, 167 617.278, 167 617.618 C 167 617.958, 168.238 619.687, 169.750 621.460 C 171.263 623.233, 173.175 625.729, 174 627.006 C 177.269 632.065, 200.555 655.946, 211.535 665.500 C 215.328 668.800, 219.469 672.502, 220.737 673.727 C 222.006 674.951, 224.018 676.475, 225.209 677.112 C 226.400 677.749, 227.852 678.668, 228.437 679.155 C 233.386 683.272, 250.810 695.338, 255.567 697.943 C 258.830 699.729, 261.950 701.545, 262.500 701.977 C 263.050 702.409, 269.125 705.686, 276 709.259 C 282.875 712.833, 289.850 716.483, 291.500 717.372 C 293.150 718.261, 295.175 718.993, 296 719 C 296.825 719.007, 298.694 719.635, 300.153 720.397 C 301.613 721.158, 304.538 722.339, 306.653 723.021 C 308.769 723.703, 310.950 724.600, 311.500 725.015 C 312.050 725.430, 314.075 726.098, 316 726.500 C 317.925 726.902, 319.950 727.559, 320.500 727.960 C 321.050 728.361, 323.750 729.251, 326.500 729.938 C 329.250 730.624, 332.400 731.570, 333.500 732.041 C 334.600 732.511, 338.200 733.400, 341.500 734.016 C 344.800 734.633, 348.850 735.747, 350.500 736.493 C 352.150 737.239, 356.425 738.167, 360 738.555 C 363.575 738.943, 366.956 739.619, 367.514 740.057 C 368.071 740.494, 374.146 741.372, 381.014 742.007 C 387.881 742.642, 395.750 743.411, 398.500 743.715 C 401.250 744.019, 407.438 744.465, 412.250 744.705 L 421 745.142 421 730.664 L 421 716.187 411.250 715.599 C 389.957 714.316, 367.347 711.688, 363.500 710.048 C 362.400 709.580, 358.125 708.650, 354 707.982 C 349.875 707.314, 346.050 706.418, 345.500 705.992 C 344.950 705.566, 341.800 704.669, 338.500 704 C 335.200 703.331, 332.050 702.432, 331.500 702.003 C 330.950 701.574, 327.913 700.651, 324.750 699.952 C 321.587 699.253, 319 698.353, 319 697.952 C 319 697.551, 317.470 696.936, 315.600 696.585 C 313.731 696.234, 311.675 695.313, 311.031 694.538 C 310.388 693.763, 308.543 692.839, 306.931 692.485 C 305.319 692.131, 304 691.427, 304 690.921 C 304 690.414, 303.563 690, 303.030 690 C 301.662 690, 291.529 685.476, 285 681.950 C 281.975 680.316, 277.813 678.241, 275.750 677.338 C 273.688 676.435, 272 675.315, 272 674.848 C 272 674.382, 271.394 674, 270.653 674 C 269.912 674, 268.268 673.100, 267 672 C 265.732 670.900, 264.383 670, 264.003 670 C 263.622 670, 262.004 668.876, 260.406 667.501 C 258.807 666.127, 257.144 665.002, 256.708 665.001 C 255.901 665, 254.373 663.876, 250.928 660.750 C 249.868 659.788, 248.745 659, 248.433 659 C 248.122 659, 246.209 657.765, 244.183 656.256 C 240.547 653.547, 238.599 651.847, 230.233 644.084 C 227.886 641.906, 225.040 639.830, 223.908 639.471 C 222.775 639.111, 222.021 638.645, 222.231 638.435 C 222.441 638.225, 219.303 634.554, 215.256 630.277 C 211.209 625.999, 206.768 621.263, 205.386 619.750 C 204.005 618.237, 202.453 617, 201.937 617 C 201.422 617, 201 616.373, 201 615.607 C 201 614.841, 200.396 613.982, 199.658 613.699 C 198.921 613.416, 196.698 610.780, 194.718 607.842 C 192.739 604.904, 189.968 601.193, 188.560 599.594 C 187.152 597.996, 186 596.409, 186 596.067 C 186 595.725, 184.763 594.090, 183.250 592.432 C 179.980 588.850, 177.195 584.786, 174.731 580 C 171.119 572.985, 169.676 570.490, 168.948 570 C 167.832 569.249, 163 559.885, 163 558.474 C 163 557.798, 162.354 556.709, 161.564 556.053 C 160.775 555.398, 159.847 553.580, 159.503 552.014 C 159.159 550.448, 158.255 548.928, 157.494 548.636 C 156.733 548.344, 155.810 546.506, 155.444 544.553 C 155.077 542.599, 154.422 541, 153.988 541 C 153.555 541, 152.660 538.750, 152 536 C 151.340 533.250, 150.395 531, 149.900 531 C 149.405 531, 148.997 530.212, 148.994 529.250 C 148.990 528.288, 148.376 526.328, 147.628 524.895 C 146.881 523.462, 145.698 519.909, 145 517 C 144.302 514.091, 143.139 510.568, 142.415 509.173 C 141.691 507.777, 140.799 504.243, 140.434 501.318 C 140.069 498.393, 139.437 496, 139.030 496 C 138.623 496, 137.702 491.837, 136.983 486.750 C 136.264 481.663, 135.291 477.244, 134.821 476.930 C 134.351 476.617, 133.569 473.467, 133.084 469.930 C 132.599 466.394, 131.885 462.375, 131.496 461 C 130.211 456.445, 129.740 403.991, 130.904 395 C 133.202 377.253, 133.992 372.622, 134.817 372.070 C 135.284 371.756, 136.224 367.457, 136.904 362.516 C 137.584 357.574, 138.497 353.299, 138.932 353.016 C 139.367 352.732, 140.049 350.250, 140.448 347.500 C 140.847 344.750, 141.775 341.150, 142.512 339.500 C 143.248 337.850, 144.164 334.925, 144.546 333 C 144.928 331.075, 145.823 328.359, 146.535 326.965 C 147.246 325.571, 148.141 322.763, 148.524 320.724 C 148.906 318.686, 149.583 317.242, 150.028 317.517 C 150.473 317.792, 151.150 316.551, 151.532 314.759 C 151.914 312.966, 153.009 309.700, 153.966 307.500 C 154.923 305.300, 155.982 302.712, 156.321 301.750 C 156.660 300.788, 157.401 300, 157.969 300 C 158.536 300, 158.994 299.438, 158.986 298.750 C 158.973 297.484, 168.007 278.921, 169.085 278 C 169.407 277.725, 171.055 274.958, 172.746 271.851 C 176.443 265.060, 179.098 260.852, 180.537 259.500 C 182.134 258.001, 188.146 250.092, 191.521 245.051 C 193.160 242.604, 197.537 237.463, 201.250 233.625 C 204.962 229.788, 208 226.359, 208 226.006 C 208 225.043, 224.232 209, 225.207 209 C 225.670 209, 227.951 206.939, 230.275 204.420 C 234.304 200.052, 246.969 190, 248.444 190 C 248.828 190, 249.750 189.438, 250.491 188.750 C 251.233 188.063, 253.012 186.600, 254.445 185.500 C 255.878 184.400, 257.714 182.905, 258.525 182.179 C 259.336 181.452, 260.014 181.227, 260.030 181.679 C 260.047 182.130, 260.519 181.713, 261.080 180.750 C 261.641 179.787, 262.752 179, 263.550 179 C 264.347 179, 265 178.527, 265 177.948 C 265 177.369, 266.350 176.425, 268 175.850 C 269.650 175.275, 271 174.434, 271 173.982 C 271 173.529, 272.350 172.862, 274 172.500 C 275.650 172.138, 277 171.476, 277 171.029 C 277 170.583, 278.762 169.512, 280.915 168.651 C 283.068 167.789, 285.098 166.650, 285.426 166.119 C 285.755 165.588, 287.368 164.858, 289.011 164.497 C 290.655 164.136, 292 163.427, 292 162.921 C 292 162.414, 292.563 162, 293.250 162 C 294.520 162.001, 307.085 155.976, 308 154.927 C 308.275 154.612, 312.550 153.040, 317.500 151.434 C 322.450 149.827, 326.725 148.226, 327 147.877 C 327.275 147.527, 330.200 146.684, 333.500 146.002 C 336.800 145.321, 340.850 144.188, 342.500 143.485 C 344.150 142.781, 347.863 141.892, 350.750 141.509 C 353.637 141.126, 356 140.484, 356 140.083 C 356 139.681, 361.063 138.764, 367.250 138.044 C 373.438 137.324, 379.008 136.334, 379.629 135.845 C 380.250 135.356, 384.525 134.679, 389.129 134.341 C 393.733 134.003, 397.950 133.384, 398.500 132.965 C 399.794 131.980, 444 131.991, 444 132.976 C 444 133.387, 448.048 133.953, 452.996 134.236 C 457.944 134.518, 462.556 135.189, 463.246 135.727 C 463.936 136.265, 469.225 137.260, 475 137.939 C 480.775 138.618, 485.950 139.525, 486.500 139.955 C 487.050 140.385, 490.650 141.338, 494.500 142.074 C 502.633 143.629, 502.074 143.498, 504 144.287 C 504.825 144.625, 507.525 145.417, 510 146.048 C 512.475 146.679, 514.950 147.550, 515.500 147.982 C 516.050 148.415, 518.075 149.097, 520 149.498 C 521.925 149.899, 525.525 151.111, 528 152.193 C 533.887 154.765, 548.428 161.631, 553.500 164.234 C 555.700 165.363, 558.850 166.965, 560.500 167.796 C 566.222 170.675, 577.502 177.466, 577.833 178.231 C 578.017 178.654, 578.667 179, 579.279 179 C 579.890 179, 581.540 180.079, 582.945 181.398 C 584.350 182.716, 587.264 184.725, 589.419 185.862 C 591.575 186.999, 593.600 188.285, 593.919 188.720 C 594.239 189.155, 597.200 191.486, 600.500 193.899 C 603.800 196.312, 607.400 199.114, 608.500 200.125 C 609.600 201.136, 613.593 204.784, 617.373 208.231 C 628.778 218.634, 641 230.927, 641 231.995 C 641 232.548, 641.450 233, 642 233 C 642.550 233, 643 233.407, 643 233.904 C 643 234.736, 647.033 239.753, 651.250 244.168 C 652.212 245.176, 653 246.372, 653 246.826 C 653 247.280, 654.125 248.708, 655.500 250 C 656.875 251.292, 658 252.945, 658 253.674 C 658 254.403, 658.464 255, 659.031 255 C 659.599 255, 660.353 255.788, 660.708 256.750 C 661.063 257.713, 662.356 259.850, 663.581 261.500 C 664.807 263.150, 667.503 267.425, 669.572 271 C 671.642 274.575, 673.649 277.725, 674.033 278 C 674.417 278.275, 675.046 279.510, 675.431 280.744 C 675.816 281.978, 676.664 283.571, 677.316 284.283 C 679.180 286.320, 681 289.838, 681 291.403 C 681 292.190, 681.337 292.983, 681.750 293.167 C 682.791 293.629, 690.959 310.772, 691.034 312.651 C 691.053 313.118, 691.937 315.300, 693 317.500 C 694.063 319.700, 694.950 322.175, 694.972 323 C 694.994 323.825, 695.719 325.850, 696.582 327.500 C 697.445 329.150, 698.603 332.930, 699.154 335.900 C 699.706 338.870, 700.796 341.939, 701.578 342.721 C 702.360 343.503, 703 345.209, 703 346.512 C 703 347.816, 703.394 349.125, 703.875 349.423 C 704.356 349.720, 705.289 353.684, 705.949 358.232 C 706.609 362.779, 707.539 367.400, 708.016 368.500 C 709.091 370.976, 711 385.795, 711 391.659 C 711 394.047, 711.450 396, 712 396 C 712.550 396, 713 397.815, 713 400.034 C 713 403.106, 712.345 404.717, 710.250 406.794 C 708.738 408.294, 706.885 410.866, 706.133 412.510 C 705.382 414.155, 704.369 416.281, 703.883 417.236 C 702.093 420.755, 702.895 429.859, 705.436 434.873 C 707.723 439.387, 713.980 446, 715.963 446 C 716.455 446, 717.574 446.717, 718.450 447.593 C 719.574 448.717, 722.021 449.205, 726.771 449.254 C 733.647 449.324, 738.855 447.315, 743.194 442.920 C 744.126 441.976, 745.251 441.046, 745.694 440.852 C 746.137 440.658, 747.620 438.925, 748.989 437 C 750.992 434.182, 751.544 432.038, 751.822 426 C 752.251 416.666, 750.589 412.397, 744.140 406.267 C 740.796 403.088, 740.776 403.015, 739.850 390.287 C 739.338 383.254, 738.513 376.600, 738.016 375.500 C 737.518 374.400, 736.810 370.575, 736.442 367 C 736.074 363.425, 735.488 360.050, 735.139 359.500 C 734.791 358.950, 733.750 354.900, 732.825 350.500 C 730.453 339.209, 727.678 328.589, 726.946 328 C 726.604 327.725, 725.784 325.321, 725.124 322.657 C 724.464 319.994, 723.300 316.844, 722.536 315.657 C 721.773 314.471, 720.840 311.813, 720.463 309.750 C 720.086 307.688, 719.377 306, 718.889 306 C 718.400 306, 718 305.431, 718 304.735 C 718 304.040, 717.100 301.791, 716 299.739 C 714.900 297.686, 714 295.528, 714 294.942 C 714 293.346, 708.786 282.551, 707.830 282.167 C 707.373 281.983, 707 281.263, 707 280.566 C 707 279.868, 705.931 277.288, 704.626 274.832 C 703.320 272.376, 701.937 269.376, 701.552 268.165 C 701.168 266.954, 699.536 264.521, 697.927 262.759 C 696.317 260.996, 695 259.135, 695 258.622 C 695 258.109, 693.971 256.296, 692.713 254.594 C 691.455 252.892, 689.318 249.362, 687.964 246.750 C 686.611 244.137, 685.154 242, 684.727 242 C 684.300 242, 683.523 240.875, 683 239.500 C 682.477 238.125, 681.619 237, 681.092 237 C 680.566 237, 679.849 236.100, 679.500 235 C 679.151 233.900, 678.221 233, 677.433 233 C 676.645 233, 676 232.520, 676 231.933 C 676 231.019, 672.935 226.467, 669.500 222.281 C 668.950 221.611, 667.375 219.605, 666 217.823 C 664.625 216.042, 661.250 212.240, 658.500 209.375 C 655.750 206.510, 650.990 201.541, 647.923 198.333 C 644.855 195.125, 640.130 190.587, 637.423 188.249 C 634.715 185.911, 630.878 182.424, 628.897 180.499 C 626.915 178.575, 624.825 177, 624.254 177 C 623.682 177, 622.985 176.403, 622.705 175.673 C 622.425 174.944, 618.889 172.131, 614.848 169.423 C 610.807 166.715, 605.524 162.813, 603.109 160.750 C 600.694 158.688, 598.155 157, 597.466 157 C 596.777 157, 595.955 156.325, 595.638 155.500 C 595.322 154.675, 594.429 154, 593.654 154 C 592.879 154, 591.686 153.327, 591.004 152.505 C 590.321 151.682, 588.031 150.490, 585.914 149.856 C 583.797 149.222, 582.273 148.368, 582.526 147.958 C 582.779 147.549, 581.896 146.940, 580.563 146.605 C 579.230 146.271, 577.534 145.435, 576.794 144.748 C 576.054 144.062, 573.210 142.395, 570.474 141.044 C 567.738 139.693, 564.466 137.811, 563.203 136.863 C 561.940 135.914, 559.577 134.846, 557.953 134.490 C 556.329 134.133, 555 133.427, 555 132.921 C 555 132.414, 554.320 132, 553.489 132 C 552.658 132, 550.071 131.121, 547.739 130.046 C 542.906 127.818, 536.748 125.540, 529.500 123.299 C 526.750 122.448, 524.050 121.410, 523.500 120.992 C 522.950 120.573, 520.940 119.897, 519.033 119.488 C 517.126 119.080, 514.876 118.397, 514.033 117.970 C 513.190 117.544, 510.475 116.620, 508 115.917 C 505.525 115.215, 503.050 114.347, 502.500 113.989 C 501.950 113.632, 497.675 112.754, 493 112.038 C 488.325 111.323, 484.050 110.396, 483.500 109.979 C 482.950 109.561, 477.550 108.682, 471.500 108.025 C 457.037 106.454, 457.675 106.552, 456.310 105.699 C 454.938 104.842, 408.787 104.057, 395.750 104.668 M 606.429 105.885 C 606.818 106.515, 608.568 107.711, 610.318 108.542 C 613.933 110.259, 616.064 111.511, 621.021 114.829 L 624.500 117.158 621 114.002 C 619.075 112.267, 615.250 109.646, 612.500 108.179 C 605.905 104.660, 605.601 104.546, 606.429 105.885 M 625.442 117.906 C 625.806 118.494, 628.218 120.206, 630.802 121.708 C 633.386 123.211, 639 127.104, 643.278 130.359 C 647.555 133.615, 651.281 136.052, 651.557 135.777 C 651.984 135.349, 637.812 124.506, 632.896 121.500 C 627.790 118.377, 624.860 116.964, 625.442 117.906 M 652 137.464 C 652 137.719, 653.535 138.971, 655.412 140.246 C 665.724 147.253, 692.993 174.029, 706 189.919 C 707.925 192.271, 711.413 196.486, 713.750 199.288 C 716.087 202.089, 718 204.764, 718 205.232 C 718 206.082, 719.044 207.528, 722.129 210.951 C 724.822 213.939, 731.472 223.326, 732.789 226 C 733.467 227.375, 734.804 229.702, 735.761 231.171 C 739.392 236.748, 749.581 254.812, 753.290 262.250 C 757.248 270.187, 759.146 272.679, 756.609 266.607 C 754.472 261.492, 743.986 242.040, 740.107 235.996 C 738.063 232.811, 736.789 230.699, 733.173 224.500 C 731.569 221.750, 728.157 216.800, 725.592 213.500 C 723.027 210.200, 719.881 205.919, 718.601 203.987 C 710.628 191.950, 689.297 168.701, 670.759 151.843 C 658.105 140.336, 652 135.657, 652 137.464 M 709.073 145.750 C 713.708 150.563, 717.950 154.668, 718.500 154.873 C 719.050 155.078, 717.475 153.110, 715 150.500 C 707.338 142.421, 701.802 137, 701.211 137 C 700.900 137, 704.438 140.938, 709.073 145.750 M 720.080 157.604 C 720.948 158.647, 725.050 163.361, 729.195 168.079 C 733.339 172.798, 737.527 177.875, 738.501 179.361 C 739.474 180.847, 740.480 181.853, 740.736 181.597 C 741.224 181.109, 737.338 175.622, 732.880 170.507 C 731.439 168.853, 728.104 165.025, 725.467 162 C 721.121 157.013, 716.332 153.106, 720.080 157.604 M 414.176 178.352 C 411.054 181.295, 407.451 184.558, 406.170 185.602 C 404.888 186.646, 402.838 188.400, 401.613 189.500 C 400.389 190.600, 396.375 194.184, 392.694 197.464 C 389.012 200.744, 386 204.078, 386 204.874 C 386 206.328, 387.053 207.381, 398.953 217.832 C 402.503 220.950, 408.271 226.199, 411.772 229.499 C 415.273 232.798, 418.669 235.775, 419.319 236.115 C 419.968 236.455, 426.350 237.003, 433.500 237.333 C 440.650 237.663, 448.750 238.398, 451.500 238.966 C 468.441 242.463, 481.114 246.118, 489.500 249.925 C 493.350 251.673, 498.750 254.071, 501.500 255.254 C 504.250 256.438, 507.042 257.803, 507.704 258.287 C 508.367 258.772, 510.617 260.081, 512.704 261.195 C 521.690 265.993, 521.276 265.712, 536.696 277.431 C 563.114 297.507, 587.507 332.297, 597.872 364.682 C 604.813 386.368, 606.163 394.679, 606.695 419 C 607.330 448.046, 605.265 462.292, 596.766 487.500 C 592.711 499.526, 592.003 501.015, 580.592 521.500 C 574.686 532.102, 559.627 550.645, 548 561.631 C 542.190 567.122, 522.308 582.252, 517.341 584.963 C 515.228 586.117, 511.475 588.204, 509 589.603 C 506.525 591.002, 501.125 593.541, 497 595.245 C 492.875 596.949, 489.073 598.716, 488.550 599.172 C 488.028 599.627, 486.885 600, 486.011 600 C 485.138 600, 482.718 600.869, 480.633 601.932 C 477.232 603.666, 466.721 606.456, 449.500 610.197 C 439.790 612.306, 399.877 611.946, 388 609.642 C 370.170 606.183, 359.813 602.846, 342.890 595.108 C 340.355 593.949, 337.972 593, 337.594 593 C 336.283 593, 320.464 583.559, 313.500 578.620 C 302.277 570.662, 291.652 561.698, 285.871 555.313 C 273.401 541.539, 270.969 538.597, 266.370 531.726 C 263.710 527.752, 261.301 524.275, 261.017 524 C 258.825 521.879, 245.392 493.959, 242.733 486 C 236.833 468.333, 233.990 453.711, 233.255 437.252 C 232.906 429.419, 232.268 424.637, 231.484 423.987 C 230.698 423.334, 219.388 423.065, 199.880 423.235 L 169.500 423.500 169.812 436 C 170.472 462.481, 175.834 489.909, 183.984 508.500 C 184.466 509.600, 185.410 512.300, 186.080 514.500 C 187.431 518.928, 197.319 540.927, 199.765 544.946 C 215.248 570.379, 228.469 587.687, 244.831 603.946 C 259.833 618.852, 282.091 635.199, 300 644.464 C 304.125 646.598, 308.625 649.121, 310 650.072 C 311.375 651.022, 317.450 653.702, 323.500 656.026 C 329.550 658.350, 335.400 660.605, 336.500 661.036 C 346.787 665.073, 379.063 672.737, 391 673.978 C 403.593 675.287, 436.186 675.266, 449.144 673.941 C 459.856 672.845, 496.612 664.187, 503.500 661.137 C 504.600 660.650, 510.450 658.336, 516.500 655.996 C 522.550 653.655, 529.439 650.482, 531.808 648.945 C 534.178 647.408, 538.114 645.329, 540.555 644.325 C 542.995 643.321, 544.994 642.163, 544.996 641.750 C 544.998 641.337, 545.513 641, 546.140 641 C 547.263 641, 562.138 631.657, 567 627.897 C 568.375 626.834, 571.242 624.631, 573.371 623.003 C 584.800 614.261, 595.722 603.872, 609.251 588.875 C 617.462 579.774, 620.944 575.079, 634 555.500 C 638.075 549.390, 644.425 537.341, 647.968 529 C 649.719 524.875, 651.793 520.082, 652.576 518.349 C 653.359 516.616, 654 514.578, 654 513.821 C 654 513.064, 654.670 511.489, 655.489 510.320 C 656.790 508.462, 659.981 499.085, 663.084 488 C 665.939 477.799, 669.029 457.332, 670.029 441.993 C 671.177 424.397, 670.217 397.498, 667.993 384.929 C 664.596 365.732, 659.380 345.669, 656.110 339.225 C 655.629 338.276, 654.219 334.800, 652.977 331.500 C 650.775 325.648, 638.218 299.488, 635.697 295.500 C 625.662 279.625, 616.059 266.888, 605.500 255.445 C 592.477 241.333, 593.724 242.544, 583.976 234.550 C 579.314 230.727, 574.671 226.765, 573.659 225.744 C 570.850 222.913, 546.332 207.012, 542.966 205.838 C 541.335 205.270, 540 204.476, 540 204.075 C 540 203.202, 514.336 191, 512.500 191 C 512.116 191, 510.384 190.359, 508.651 189.575 C 505.424 188.116, 490.879 183.607, 485.500 182.398 C 483.850 182.028, 481.979 181.316, 481.343 180.816 C 478.510 178.595, 438.883 173, 425.984 173 C 419.945 173, 419.765 173.081, 414.176 178.352 M 742.885 185.839 C 743.997 187.400, 745.566 189.225, 746.371 189.893 C 747.177 190.562, 749.734 194.023, 752.055 197.584 C 754.375 201.146, 756.493 203.840, 756.762 203.572 C 757.362 202.971, 751.030 193.442, 747.706 189.943 C 746.370 188.537, 744.749 186.399, 744.103 185.193 C 743.458 183.987, 742.465 183, 741.897 183 C 741.329 183, 741.773 184.277, 742.885 185.839 M 758.591 207.750 C 760.286 210.311, 764.479 217.026, 769.233 224.793 C 770.341 226.604, 771.454 227.880, 771.705 227.628 C 772.172 227.162, 770.195 222.905, 769.091 222 C 767.875 221.002, 763 213.017, 763 212.021 C 763 211.460, 762.605 211, 762.121 211 C 761.638 211, 760.683 209.650, 760 208 C 759.317 206.350, 758.310 205, 757.764 205 C 757.217 205, 757.589 206.238, 758.591 207.750 M 772 229.941 C 772 230.459, 772.397 231.127, 772.883 231.427 C 773.758 231.968, 783.198 250.761, 785.077 255.703 C 785.616 257.119, 786.315 258.019, 786.631 257.703 C 786.947 257.386, 786.034 254.652, 784.603 251.626 C 783.171 248.600, 782 245.920, 782 245.670 C 782 244.871, 772.899 229, 772.440 229 C 772.198 229, 772 229.423, 772 229.941 M 787 259.548 C 787 259.850, 787.933 261.987, 789.073 264.298 C 792.897 272.050, 800 290.037, 800 291.969 C 800 293.021, 800.450 294.160, 801 294.500 C 801.550 294.840, 802 294.709, 802 294.208 C 802 293.125, 800.188 287.317, 798.971 284.500 C 798.496 283.400, 797.133 280.025, 795.942 277 C 791.707 266.238, 787 257.053, 787 259.548 M 758.563 273 C 758.926 274.375, 759.819 276.850, 760.549 278.500 C 761.278 280.150, 763.062 284.425, 764.513 288 C 765.965 291.575, 768.018 296.330, 769.076 298.566 C 770.134 300.802, 771 303.363, 771 304.257 C 771 305.151, 771.468 306.171, 772.040 306.525 C 773.310 307.310, 772.320 302.695, 770.400 298.878 C 769.675 297.436, 766.997 291.136, 764.451 284.878 C 759.622 273.013, 757.369 268.468, 758.563 273 M 802.271 297.265 C 802.608 298.141, 803.185 300.470, 803.555 302.440 C 803.924 304.410, 804.702 306.316, 805.283 306.675 C 805.932 307.076, 806.104 306.713, 805.729 305.735 C 805.392 304.859, 804.815 302.530, 804.445 300.560 C 804.076 298.590, 803.298 296.684, 802.717 296.325 C 802.068 295.924, 801.896 296.287, 802.271 297.265 M 773 308.557 C 773 310.457, 775.438 318.670, 776.248 319.500 C 776.888 320.155, 777.034 319.811, 776.672 318.500 C 776.368 317.400, 775.625 314.587, 775.021 312.250 C 774.087 308.635, 773 306.649, 773 308.557 M 806.530 311.500 C 808.171 318.839, 809.165 322.169, 809.586 321.747 C 810.275 321.058, 807.925 310.644, 806.822 309.500 C 806.201 308.855, 806.097 309.565, 806.530 311.500 M 777.492 324.500 C 778.748 330.588, 780.144 335.189, 780.600 334.734 C 781.249 334.085, 779.147 325.032, 777.897 323.089 C 777.126 321.892, 777.026 322.241, 777.492 324.500 M 810.296 325.625 C 810.576 326.656, 812.073 332.900, 813.621 339.500 C 815.170 346.100, 816.582 350.789, 816.759 349.919 C 816.937 349.050, 815.938 343.938, 814.541 338.560 C 813.143 333.181, 812 327.957, 812 326.950 C 812 325.942, 811.502 324.810, 810.893 324.434 C 810.181 323.994, 809.968 324.419, 810.296 325.625 M 781.001 337.750 C 781.005 339.985, 783.900 353.228, 784.513 353.812 C 784.909 354.191, 784.978 353.150, 784.666 351.500 C 782.571 340.426, 781.806 337, 781.429 337 C 781.193 337, 781.001 337.337, 781.001 337.750 M 817.467 356.538 C 817.773 358.717, 818.465 364.284, 819.004 368.908 C 819.948 377.013, 821.038 380.911, 820.964 375.917 C 820.895 371.278, 818.354 354.021, 817.634 353.301 C 817.235 352.902, 817.160 354.358, 817.467 356.538 M 785.162 357.500 C 785.157 359.150, 785.776 363.875, 786.539 368 L 787.925 375.500 787.378 367.757 C 787.077 363.498, 786.457 358.773, 786.001 357.257 L 785.172 354.500 785.162 357.500 M 821.784 390 C 822.628 402.139, 822.598 449.171, 821.740 459 C 821.204 465.142, 821.288 465.957, 822.205 463.500 C 823.717 459.449, 823.725 391.243, 822.213 385 C 821.295 381.208, 821.228 381.994, 821.784 390 M 789.680 396.500 C 789.984 403.650, 790.647 409.944, 791.153 410.487 C 791.715 411.089, 791.814 407.584, 791.406 401.487 C 790.347 385.625, 789.060 381.908, 789.680 396.500 M 34.656 397.750 C 34.402 398.163, 37.708 398.500, 42.003 398.500 C 46.297 398.500, 49.291 398.169, 48.655 397.765 C 47.134 396.798, 35.251 396.785, 34.656 397.750 M 29.873 399.820 C 23.267 402.581, 14.881 414.074, 15.079 420.096 L 15.158 422.500 15.991 420 C 16.450 418.625, 17.071 416.375, 17.371 415 C 18.050 411.890, 25.324 403.881, 30 401.094 C 33.356 399.093, 33.286 398.394, 29.873 399.820 M 51.395 399.830 C 51.793 400.474, 52.818 401, 53.675 401 C 55.689 401, 62.521 408.366, 65.268 413.500 C 69.904 422.165, 67.571 434.539, 59.761 442.704 C 56.857 445.740, 56.751 446.134, 57.728 450.204 L 58.760 454.500 58.880 450.144 C 58.965 447.052, 59.741 444.908, 61.555 442.752 C 69.300 433.547, 71.039 423.338, 66.489 413.777 C 64.099 408.756, 56.802 400, 55.007 400 C 54.543 400, 53.378 399.699, 52.418 399.330 C 51.227 398.873, 50.902 399.032, 51.395 399.830 M 15.099 428.601 C 14.973 432.535, 18.966 440.104, 23.129 443.824 C 26.330 446.684, 26.338 446.716, 27.216 460.095 C 27.700 467.468, 28.520 474.850, 29.040 476.500 C 29.831 479.015, 29.910 478.691, 29.526 474.500 C 29.275 471.750, 28.763 464.325, 28.389 458 L 27.710 446.500 22.979 441.817 C 19.265 438.140, 17.921 435.884, 16.723 431.317 C 15.522 426.733, 15.177 426.157, 15.099 428.601 M 790.718 438.683 C 789.994 439.911, 788.697 465.591, 789.394 464.919 C 790.124 464.214, 792.256 438.923, 791.637 438.304 C 791.397 438.064, 790.983 438.234, 790.718 438.683 M 59.502 467 C 59.871 471.125, 60.627 477.200, 61.182 480.500 C 61.738 483.800, 62.747 489.986, 63.425 494.246 C 64.103 498.506, 64.960 502.294, 65.329 502.663 C 66.419 503.752, 66.116 500.716, 64.048 489.801 C 62.975 484.135, 61.641 475.279, 61.084 470.119 C 59.874 458.905, 58.543 456.280, 59.502 467 M 786.552 479.552 C 785.585 486.468, 785.023 492.356, 785.302 492.635 C 785.581 492.914, 786.061 491.873, 786.368 490.322 C 787.369 485.260, 789.166 467.833, 788.732 467.399 C 788.500 467.166, 787.518 472.635, 786.552 479.552 M 819.992 471.083 C 819.988 471.313, 819.315 476.865, 818.497 483.422 C 817.114 494.509, 817.028 499.173, 818.305 493.797 C 819.468 488.904, 821.224 471.891, 820.628 471.295 C 820.283 470.949, 819.996 470.854, 819.992 471.083 M 30.555 487 C 31.257 493.947, 33.048 503.285, 33.576 502.758 C 34.186 502.147, 31.902 485.777, 30.888 483.500 C 30.303 482.184, 30.188 483.382, 30.555 487 M 783.647 496.675 C 782.626 500.156, 781.007 510.341, 781.411 510.745 C 781.957 511.291, 782.679 508.677, 783.942 501.581 C 784.951 495.909, 784.767 492.856, 783.647 496.675 M 814.719 504 C 810.646 521.160, 809.989 524.322, 810.411 524.744 C 810.899 525.233, 812.986 518.297, 812.994 516.155 C 812.997 515.416, 813.935 511.732, 815.078 507.969 C 816.221 504.207, 817.008 500.087, 816.828 498.814 C 816.632 497.438, 815.777 499.541, 814.719 504 M 66.596 506.964 C 66.957 508.869, 67.876 512.019, 68.637 513.964 L 70.021 517.500 69.468 513.763 C 69.163 511.707, 68.245 508.557, 67.426 506.763 L 65.938 503.500 66.596 506.964 M 34.553 509 C 35.124 513.040, 38.414 527.348, 39.586 530.893 C 39.840 531.659, 40.255 532.078, 40.510 531.824 C 40.764 531.569, 40.116 528.242, 39.069 524.430 C 38.022 520.619, 36.847 515.250, 36.458 512.500 C 36.069 509.750, 35.338 506.825, 34.834 506 C 34.242 505.034, 34.142 506.101, 34.553 509 M 779.583 514.250 C 778.429 518.322, 777.035 526.368, 777.417 526.751 C 777.861 527.194, 779.195 522.645, 780.497 516.250 C 781.118 513.200, 780.354 511.529, 779.583 514.250 M 70.082 519.307 C 70.037 519.751, 70.511 522.226, 71.136 524.807 C 72.498 530.435, 74.572 533.251, 73.488 528 C 72.727 524.320, 70.221 517.924, 70.082 519.307 M 808.171 530.183 C 806.452 535.730, 805.697 540.598, 806.727 539.500 C 807.788 538.369, 810.258 527.925, 809.617 527.283 C 809.387 527.054, 808.737 528.359, 808.171 530.183 M 774.558 532.750 C 774.192 534.813, 773.697 537.400, 773.457 538.500 C 772.817 541.433, 775.610 534.988, 776.382 531.750 C 776.743 530.237, 776.630 529, 776.130 529 C 775.631 529, 774.924 530.688, 774.558 532.750 M 74.271 534.265 C 74.608 535.141, 75.185 537.470, 75.555 539.440 C 75.924 541.410, 76.702 543.316, 77.283 543.675 C 77.932 544.076, 78.104 543.713, 77.729 542.735 C 77.392 541.859, 76.815 539.530, 76.445 537.560 C 76.076 535.590, 75.298 533.684, 74.717 533.325 C 74.068 532.924, 73.896 533.287, 74.271 534.265 M 41.551 537.500 C 42.424 542.290, 43.888 546.445, 44.491 545.842 C 45.026 545.307, 42.378 535.043, 41.474 534.147 C 41.115 533.791, 41.150 535.300, 41.551 537.500 M 804.018 545.149 C 803.405 547.542, 802.025 551.608, 800.952 554.185 C 799.878 556.762, 798.998 559.462, 798.997 560.185 C 798.993 561.534, 793.998 574.266, 792.029 577.946 C 791.424 579.075, 791.324 580, 791.806 580 C 792.288 580, 793.963 576.737, 795.529 572.750 C 797.096 568.763, 798.677 565.050, 799.044 564.500 C 799.411 563.950, 800.260 561.256, 800.930 558.513 C 801.600 555.771, 802.500 553.071, 802.930 552.513 C 803.997 551.129, 806.206 541.873, 805.611 541.277 C 805.347 541.014, 804.630 542.756, 804.018 545.149 M 771.028 544.426 C 769.461 548.547, 769.962 549.962, 771.632 546.134 C 772.440 544.282, 772.866 542.532, 772.578 542.245 C 772.291 541.958, 771.593 542.939, 771.028 544.426 M 78 546.520 C 78 548.209, 88.182 573.151, 88.672 572.661 C 88.871 572.462, 87.255 567.809, 85.080 562.322 C 82.904 556.835, 80.822 551.138, 80.452 549.663 C 79.851 547.270, 78 544.897, 78 546.520 M 45.646 549 C 46.714 553.300, 48.033 556.300, 48.605 555.728 C 48.907 555.426, 48.225 553.227, 47.089 550.840 C 45.954 548.453, 45.304 547.625, 45.646 549 M 767.697 552.935 C 766.764 554.515, 766.020 556.414, 766.044 557.154 C 766.069 557.894, 767.001 556.770, 768.116 554.656 C 770.502 550.134, 770.166 548.756, 767.697 552.935 M 49.548 560.250 C 50.490 564.582, 51.955 568.378, 52.481 567.852 C 53.014 567.319, 50.032 557, 49.345 557 C 49.068 557, 49.159 558.462, 49.548 560.250 M 763.567 563.125 C 762.659 565.393, 762.148 567.481, 762.430 567.764 C 762.923 568.256, 763.935 566.062, 765.434 561.250 C 766.618 557.448, 765.314 558.758, 763.567 563.125 M 53.600 571.500 C 54.411 574.784, 58.908 585, 59.542 585 C 60.012 585, 59.485 583.333, 56.694 576 C 54.273 569.640, 52.505 567.068, 53.600 571.500 M 759.455 572.455 C 758.590 574.523, 758.108 576.441, 758.383 576.716 C 758.658 576.991, 759.590 575.523, 760.455 573.455 C 761.319 571.386, 761.801 569.468, 761.526 569.193 C 761.251 568.918, 760.319 570.386, 759.455 572.455 M 89.022 574.750 C 89.034 575.163, 89.968 576.625, 91.096 578 C 92.225 579.375, 92.890 579.825, 92.575 579 C 92.259 578.175, 91.724 576.712, 91.384 575.750 C 90.779 574.035, 88.978 573.272, 89.022 574.750 M 756.314 579.908 C 755.551 582.826, 747.047 599.319, 745.944 600.020 C 745.494 600.307, 744.619 601.872, 744 603.499 C 743.382 605.127, 743.103 606.231, 743.380 605.953 C 746.742 602.591, 758.718 579.385, 757.645 578.312 C 757.247 577.913, 756.648 578.632, 756.314 579.908 M 93.567 583.250 C 94.275 585.518, 97 589.959, 97 588.845 C 97 588.514, 96.319 586.614, 95.487 584.622 C 93.826 580.648, 92.448 579.662, 93.567 583.250 M 789.046 584.078 C 786.391 590.859, 771.881 619.638, 767.984 625.850 C 765.793 629.343, 764 632.407, 764 632.659 C 764 634.103, 766.292 631.226, 769.123 626.229 C 770.908 623.078, 772.656 620.275, 773.008 620 C 773.601 619.537, 782.179 602.186, 788.464 588.737 C 789.946 585.567, 790.984 582.452, 790.772 581.815 C 790.559 581.177, 789.782 582.196, 789.046 584.078 M 60.345 587.343 C 60.710 588.356, 61.280 590.269, 61.613 591.593 C 61.945 592.917, 62.624 594, 63.122 594 C 63.620 594, 63.331 592.336, 62.481 590.301 C 60.875 586.458, 59.182 584.112, 60.345 587.343 M 97.782 591.763 C 101.818 601.674, 115.892 624.634, 115.973 621.439 C 115.988 620.855, 115.197 619.505, 114.215 618.439 C 112.093 616.134, 105.675 604.968, 101.492 596.304 C 99.846 592.896, 98.177 590.083, 97.782 590.054 C 97.387 590.024, 97.387 590.793, 97.782 591.763 M 64.004 595.203 C 63.999 596.130, 66.275 601.228, 67.262 602.500 C 68.558 604.171, 74.987 616.317, 76.127 619.250 C 76.715 620.763, 77.588 622, 78.066 622 C 79.100 622, 78.192 619.119, 76.492 617 C 75.830 616.175, 73.723 612.350, 71.810 608.500 C 68.074 600.981, 64.010 594.058, 64.004 595.203 M 741.278 608.250 C 740.746 608.938, 740.018 610.175, 739.661 611 C 739.304 611.825, 737.198 615.376, 734.981 618.892 C 732.764 622.407, 731.128 625.462, 731.346 625.680 C 731.564 625.898, 733.212 623.696, 735.008 620.788 C 736.804 617.880, 739.030 614.375, 739.954 613 C 742.683 608.942, 743.774 605.024, 741.278 608.250 M 79.059 623.378 C 78.978 624.580, 85.185 635.419, 86.191 635.833 C 86.636 636.017, 87 636.627, 87 637.189 C 87 638.070, 88.425 640.087, 93.030 645.724 C 93.580 646.396, 94.462 648.084, 94.990 649.474 C 95.518 650.863, 96.427 652, 97.010 652 C 98.377 652, 97.112 649.610, 92.652 643.767 C 90.789 641.327, 87.416 636.218, 85.156 632.415 C 79.603 623.069, 79.127 622.363, 79.059 623.378 M 116.640 624.250 C 122.925 634.620, 130.503 644.967, 140.980 657.484 C 145.116 662.425, 149.175 667.281, 150 668.275 C 162.036 682.781, 209.587 725, 213.887 725 C 214.408 725, 214.983 725.337, 215.167 725.750 C 215.597 726.718, 220.783 730.325, 224 731.894 L 226.500 733.113 224 731.057 C 220.055 727.812, 219.715 727.568, 215.723 725.120 C 213.646 723.846, 211.390 722.286, 210.710 721.652 C 210.030 721.018, 207.229 718.948, 204.487 717.051 C 201.744 715.155, 199.253 713.250, 198.952 712.819 C 198.651 712.388, 196.797 710.790, 194.833 709.268 C 184.987 701.637, 176.310 694.323, 174.673 692.275 C 173.668 691.018, 172.266 689.429, 171.556 688.745 C 170.846 688.060, 166.380 683.764, 161.632 679.198 C 156.885 674.631, 153 670.635, 153 670.317 C 153 669.820, 146.743 662.370, 137.197 651.500 C 135.748 649.850, 134.098 647.772, 133.531 646.882 C 130.561 642.222, 128.416 639.417, 127.274 638.700 C 126.573 638.260, 126 637.474, 126 636.953 C 126 636.431, 124.494 633.866, 122.652 631.252 C 120.811 628.639, 119.025 625.712, 118.684 624.750 C 118.342 623.788, 117.572 623, 116.972 623 C 116.363 623, 116.216 623.551, 116.640 624.250 M 728.294 629.250 C 727.728 630.487, 725.631 633.455, 723.633 635.845 C 719.757 640.480, 718.954 642.113, 721.652 639.874 C 723.452 638.380, 731 628.423, 731 627.543 C 731 626.118, 729.207 627.249, 728.294 629.250 M 758.468 641.170 C 749.847 654.598, 748.533 656.460, 743.180 662.846 C 740.254 666.337, 738.178 669.487, 738.567 669.846 C 738.956 670.206, 739.496 669.875, 739.767 669.110 C 740.038 668.346, 742.564 664.971, 745.380 661.610 C 748.196 658.250, 751.659 653.700, 753.076 651.500 C 754.492 649.300, 757.555 644.637, 759.881 641.138 C 762.207 637.639, 763.899 634.566, 763.642 634.309 C 763.384 634.051, 761.056 637.139, 758.468 641.170 M 717.294 643.750 C 716.940 644.712, 716.054 645.860, 715.325 646.300 C 714.596 646.740, 714 647.674, 714 648.375 C 714 649.077, 712.875 650.708, 711.500 652 C 710.125 653.292, 709 654.720, 709 655.174 C 709 655.628, 708.212 656.819, 707.250 657.820 C 706.288 658.821, 701.675 663.830, 697 668.951 C 692.325 674.071, 686.118 680.564, 683.207 683.380 C 680.296 686.196, 675.346 691.002, 672.207 694.060 C 669.068 697.118, 662.225 703.021, 657 707.177 C 651.775 711.332, 646.643 715.693, 645.595 716.866 C 644.547 718.040, 643.273 719, 642.763 719 C 642.254 719, 639.915 720.575, 637.565 722.500 C 635.216 724.425, 632.810 726, 632.218 726 C 631.627 726, 630.548 726.566, 629.821 727.257 C 629.095 727.948, 624.563 731.140, 619.750 734.350 C 614.938 737.559, 611 740.385, 611 740.628 C 611 742, 643.137 720.508, 649.500 714.881 C 652.250 712.449, 656.495 709.118, 658.933 707.480 C 666.223 702.580, 702.917 665.305, 711.086 654.500 C 720.008 642.700, 720.453 642, 719.028 642 C 718.428 642, 717.648 642.788, 717.294 643.750 M 98.023 653.500 C 98.012 654.050, 99.014 655.738, 100.251 657.250 C 101.488 658.763, 104.300 662.504, 106.500 665.565 C 110.200 670.713, 114.490 675.980, 119.548 681.586 C 120.675 682.835, 123.375 686.021, 125.548 688.666 C 130.931 695.218, 154.237 718.466, 160.972 724.002 C 163.981 726.476, 167.175 729.175, 168.070 730 C 172.831 734.391, 180.870 740.884, 185.384 743.985 C 188.198 745.918, 190.725 747.728, 191 748.006 C 192.746 749.772, 199.047 754, 199.933 754 C 200.520 754, 201 754.378, 201 754.839 C 201 755.301, 202.183 756.218, 203.629 756.877 C 208.740 759.205, 206.941 757.245, 199.765 752.667 C 177.457 738.433, 143.740 708.298, 124.388 685.297 C 119.204 679.136, 114.543 673.835, 114.030 673.518 C 113.517 673.201, 110.612 669.467, 107.575 665.221 C 100.312 655.064, 98.049 652.287, 98.023 653.500 M 733.479 675.775 C 728.315 682.027, 713.776 698.024, 707.457 704.407 C 691.483 720.541, 664.060 743.463, 650.500 752.015 C 646.650 754.443, 641.700 757.829, 639.500 759.539 C 635.657 762.526, 622.690 770.184, 614.653 774.212 C 612.538 775.272, 611.059 776.392, 611.367 776.700 C 611.675 777.009, 616.656 774.502, 622.436 771.130 C 628.216 767.759, 633.339 765, 633.820 765 C 634.301 765, 635.667 764.212, 636.856 763.250 C 641.359 759.606, 643.669 757.889, 649.294 754.003 C 652.481 751.801, 655.324 750, 655.611 750 C 655.898 750, 657.791 748.763, 659.816 747.250 C 661.841 745.737, 663.949 744.191, 664.499 743.813 C 665.050 743.434, 667.525 741.389, 670 739.268 C 672.475 737.146, 676.075 734.171, 678 732.657 C 679.925 731.144, 683.295 728.464, 685.489 726.702 C 689.234 723.697, 715.186 697.926, 724.465 688 C 731.147 680.852, 738.326 671.992, 737.834 671.500 C 737.585 671.252, 735.626 673.176, 733.479 675.775 M 227 733.367 C 227 734.834, 249.907 748.427, 250.827 747.506 C 251.427 746.906, 251.925 747.228, 244.630 743.500 C 241.402 741.850, 236.483 738.813, 233.700 736.750 C 229.163 733.389, 227 732.296, 227 733.367 M 603.205 744.178 C 600.293 745.864, 598.129 747.462, 598.396 747.729 C 598.894 748.227, 610 742.195, 610 741.427 C 610 740.535, 608.330 741.211, 603.205 744.178 M 252 748.340 C 252 748.908, 260.713 753.513, 264.750 755.078 C 265.988 755.558, 267 755.584, 267 755.135 C 267 754.687, 265.200 753.726, 263 753 C 260.800 752.274, 259 751.354, 259 750.957 C 259 750.559, 258.212 750.007, 257.250 749.730 C 256.288 749.453, 254.713 748.903, 253.750 748.506 C 252.787 748.110, 252 748.035, 252 748.340 M 582.445 754.778 C 579.115 756.275, 575.290 758.202, 573.945 759.059 C 572.600 759.916, 569.475 761.360, 567 762.267 C 564.525 763.175, 561.200 764.398, 559.611 764.986 C 558.023 765.575, 556.953 766.286, 557.234 766.567 C 557.998 767.332, 569.436 762.753, 578.388 758.100 C 582.727 755.845, 586.863 754, 587.579 754 C 588.296 754, 589.160 753.550, 589.500 753 C 590.451 751.461, 589.021 751.822, 582.445 754.778 M 271 757.761 C 272.925 758.719, 275.175 759.948, 276 760.491 C 278.642 762.230, 291.258 767.076, 291.781 766.552 C 292.059 766.274, 291.434 765.745, 290.393 765.375 C 285.666 763.697, 276.499 759.723, 274.597 758.527 C 273.444 757.802, 271.375 756.940, 270 756.613 C 268.241 756.194, 268.537 756.534, 271 757.761 M 208 759.054 C 208 759.535, 208.984 760.456, 210.187 761.100 C 211.390 761.744, 212.852 762.666, 213.437 763.149 C 215.747 765.059, 221.608 768.634, 223.500 769.288 L 225.500 769.978 223.500 768.472 C 218.163 764.453, 208 758.277, 208 759.054 M 293.318 767.652 C 294.363 768.696, 302.283 771.050, 302.849 770.485 C 303.337 769.996, 299.918 768.637, 295.502 767.565 C 293.853 767.165, 292.871 767.204, 293.318 767.652 M 550.832 768.355 C 546.268 769.780, 544.426 771.424, 548.502 770.435 C 552.735 769.407, 556 768.140, 556 767.525 C 556 766.849, 555.290 766.963, 550.832 768.355 M 304 771.429 C 304 772.118, 315.165 775.168, 315.706 774.627 C 315.976 774.357, 313.821 773.430, 310.917 772.568 C 305.431 770.939, 304 770.703, 304 771.429 M 537.644 772.631 C 534.974 773.451, 533.028 774.361, 533.320 774.654 C 533.910 775.243, 545 772.222, 545 771.472 C 545 770.701, 542.796 771.048, 537.644 772.631 M 232.031 773.771 C 232.049 774.172, 235.311 776.075, 239.281 778 C 243.252 779.925, 247.095 782.063, 247.821 782.750 C 248.548 783.438, 249.524 784, 249.990 784 C 250.455 784, 251.661 784.265, 252.668 784.589 C 254.790 785.271, 238.853 776.088, 234.750 774.265 C 233.238 773.593, 232.014 773.371, 232.031 773.771 M 317.153 775.429 C 318.063 776.418, 329.104 779.229, 329.708 778.625 C 330.166 778.167, 326.802 777.109, 319.500 775.415 C 317.850 775.032, 316.794 775.038, 317.153 775.429 M 524 777.047 C 520.975 778.106, 519.625 778.753, 521 778.485 C 522.375 778.218, 525.197 777.715, 527.272 777.368 C 529.347 777.021, 531.286 776.346, 531.581 775.869 C 532.391 774.558, 530.092 774.915, 524 777.047 M 602.180 780.613 C 598.705 782.582, 596.096 784.429, 596.383 784.717 C 596.671 785.004, 598.389 784.304, 600.203 783.162 C 602.016 782.019, 604.962 780.413, 606.750 779.593 C 609.787 778.200, 610.970 776.980, 609.250 777.015 C 608.837 777.024, 605.656 778.643, 602.180 780.613 M 332.500 779.833 C 336.048 781.376, 340.588 782.229, 339.500 781.149 C 338.950 780.602, 336.700 779.887, 334.500 779.560 C 331.819 779.160, 331.159 779.250, 332.500 779.833 M 512.500 779.713 C 511.400 779.978, 510.050 780.632, 509.500 781.168 C 508.459 782.181, 512.651 781.431, 516.500 779.915 L 518.500 779.127 516.500 779.179 C 515.400 779.208, 513.600 779.448, 512.500 779.713 M 344.500 783.445 C 349.144 784.894, 358.628 786.295, 357.733 785.400 C 357.090 784.756, 343.204 781.934, 341.500 782.100 C 340.950 782.154, 342.300 782.759, 344.500 783.445 M 498.749 783.447 C 495.035 784.119, 491.660 785.021, 491.249 785.451 C 490.837 785.882, 491.850 785.980, 493.500 785.670 C 495.150 785.361, 498.525 784.807, 501 784.441 C 505.523 783.771, 510.235 781.966, 507 782.143 C 506.175 782.187, 502.462 782.774, 498.749 783.447 M 255 785.987 C 255 786.544, 255.502 787, 256.115 787 C 256.728 787, 261.115 788.724, 265.865 790.831 C 274.402 794.618, 281.195 796.862, 279.750 795.417 C 279.341 795.007, 275.291 793.235, 270.753 791.480 C 266.214 789.724, 260.813 787.542, 258.750 786.630 C 256.640 785.698, 255 785.416, 255 785.987 M 591.250 786.031 C 590.013 786.529, 589 787.175, 589 787.468 C 589 788.517, 591.654 787.972, 593.559 786.532 C 595.729 784.891, 594.663 784.659, 591.250 786.031 M 362.500 786.931 C 365.186 788.010, 388.019 790.315, 388.753 789.580 C 389.072 789.261, 388.471 788.991, 387.417 788.980 C 386.362 788.970, 380.550 788.298, 374.500 787.489 C 362.190 785.841, 359.476 785.715, 362.500 786.931 M 473.500 787.560 C 468 788.291, 462.862 788.914, 462.083 788.945 C 461.304 788.975, 460.912 789.245, 461.211 789.544 C 461.916 790.249, 483.879 787.976, 486.500 786.927 C 488.289 786.211, 488.237 786.132, 486 786.179 C 484.625 786.208, 479 786.829, 473.500 787.560 M 583.099 789.554 C 581.228 790.366, 579.942 791.275, 580.241 791.574 C 580.854 792.187, 588 789.403, 588 788.551 C 588 787.702, 586.803 787.947, 583.099 789.554 M 396.606 791.192 C 398.748 791.573, 411.525 791.885, 425 791.885 C 438.475 791.885, 451.254 791.573, 453.397 791.192 C 455.540 790.812, 442.763 790.500, 425.003 790.500 C 407.243 790.500, 394.465 790.812, 396.606 791.192 M 574.322 793.326 C 570.420 794.767, 568.509 796.549, 572 795.491 C 576.450 794.142, 579 793.061, 579 792.525 C 579 791.796, 578.002 791.967, 574.322 793.326 M 281.550 796.879 C 282.845 798.077, 290.016 800.317, 290.621 799.712 C 290.889 799.444, 288.979 798.499, 286.376 797.612 C 280.954 795.765, 280.227 795.655, 281.550 796.879 M 562.644 797.631 C 559.974 798.451, 558.017 799.351, 558.297 799.630 C 558.918 800.251, 567.129 797.987, 568.450 796.831 C 569.773 795.674, 568.400 795.863, 562.644 797.631 M 292.405 800.847 C 292.720 801.356, 294.670 802.083, 296.739 802.461 C 298.808 802.839, 301.407 803.731, 302.515 804.443 C 303.623 805.155, 306.098 806.023, 308.015 806.371 C 311.872 807.072, 310.966 806.555, 302.500 803.223 C 296.050 800.685, 291.668 799.653, 292.405 800.847 M 550 802.117 C 546.975 803.204, 542.925 804.602, 541 805.224 C 538.682 805.973, 538.077 806.486, 539.208 806.743 C 540.148 806.956, 542.913 806.247, 545.354 805.168 C 547.795 804.088, 551.183 802.899, 552.884 802.525 C 554.585 802.152, 556.234 801.431, 556.548 800.923 C 557.332 799.654, 556.358 799.832, 550 802.117 M 313 807.824 C 315.019 809.061, 324.980 811.353, 325.608 810.725 C 325.883 810.450, 323.721 809.685, 320.804 809.025 C 317.887 808.365, 314.600 807.618, 313.500 807.365 C 311.947 807.007, 311.835 807.110, 313 807.824 M 530.220 808.449 C 527.316 809.152, 524.616 810.073, 524.220 810.496 C 523.203 811.583, 530.831 810.094, 534.469 808.495 C 538.271 806.824, 536.987 806.810, 530.220 808.449 M 327.196 811.496 C 327.925 812.260, 339.406 814.926, 342 814.934 C 344.718 814.943, 340.917 813.326, 336.500 812.594 C 334.300 812.230, 331.150 811.669, 329.500 811.349 C 327.850 811.029, 326.813 811.095, 327.196 811.496 M 513.217 812.486 C 509.761 813.171, 506.611 814.082, 506.217 814.510 C 505.823 814.937, 507.075 814.980, 509 814.604 C 510.925 814.229, 514.425 813.651, 516.777 813.321 C 519.130 812.991, 521.294 812.334, 521.586 811.860 C 522.232 810.815, 521.270 810.887, 513.217 812.486 M 347 815.845 C 348.689 816.895, 365.977 819.356, 366.686 818.648 C 367.209 818.124, 363.707 817.394, 356.500 816.526 C 353.750 816.195, 350.150 815.697, 348.500 815.419 C 346.390 815.063, 345.945 815.190, 347 815.845 M 492.791 816.418 C 488.001 817.059, 483.764 817.903, 483.375 818.292 C 482.985 818.681, 483.304 818.990, 484.083 818.978 C 487.361 818.928, 503.064 816.270, 503.671 815.662 C 504.454 814.880, 504.083 814.905, 492.791 816.418 M 373 820.113 C 377.964 821.399, 415.056 823.718, 415.637 822.779 C 415.901 822.351, 413.729 821.991, 410.809 821.979 C 407.889 821.968, 397.850 821.299, 388.500 820.493 C 369.499 818.854, 367.995 818.817, 373 820.113 M 453.750 820.835 C 442.337 821.673, 433 822.678, 433 823.069 C 433 823.460, 434.462 823.622, 436.250 823.430 C 438.038 823.237, 447.150 822.580, 456.500 821.971 C 471.792 820.975, 486.311 819.100, 477.500 819.259 C 475.850 819.289, 465.163 819.998, 453.750 820.835 M 430.949 848.751 C 668.246 848.889, 862.736 848.664, 863.149 848.251 C 863.562 847.838, 669.410 847.725, 431.700 848 L -0.500 848.500 430.949 848.751" stroke="none" fill="#fafafa" fill-rule="evenodd"/></svg>